<svg id="b7624563-5777-4880-b68b-095ee35974ac" data-name="Layer 1" xmlns="http://www.w3.org/2000/svg" xmlns:xlink="http://www.w3.org/1999/xlink" viewBox="0 0 1871.2 1399.3"><defs><clipPath id="fe813451-e991-4830-9c92-565131c020ba" transform="translate(238.6 409.9)"><rect width="1440" height="810" fill="none"/></clipPath><clipPath id="a7cd4911-aa58-40f0-b98a-245c066ae2af" transform="translate(238.6 409.9)"><rect x="615" y="270" width="1065.1" height="740.78" transform="translate(-69.9 145.7) rotate(-7)" fill="none"/></clipPath><clipPath id="beaf754c-5bec-4f96-af36-de4c938db668" transform="translate(238.6 409.9)"><rect x="1116.8" y="-106.2" width="386.6" height="352.67" transform="translate(572.9 1155.4) rotate(-58.9)" fill="none"/></clipPath><clipPath id="fe13d9df-b9ac-4a33-ab8d-7198663f3afc" transform="translate(238.6 409.9)"><rect x="1147.6" y="116.1" width="292.4" height="352.67" fill="none"/></clipPath><clipPath id="ed14cf5e-44f8-4d87-9b82-e344b76b1891" transform="translate(238.6 409.9)"><rect x="1147.6" y="310.8" width="292.4" height="398.58" fill="none"/></clipPath><clipPath id="a01d4557-f4a2-4259-b17a-a1bbd29f9b76" transform="translate(238.6 409.9)"><rect x="-303.8" y="-307.5" width="1065.1" height="740.78" transform="translate(7.8 149.2) rotate(-36.7)" fill="none"/></clipPath><clipPath id="f02be263-6310-4fd4-ab5f-8515f9bbea76" transform="translate(238.6 409.9)"><rect x="1162.5" y="577.5" width="277.5" height="232.5" fill="none"/></clipPath></defs><g clip-path="url(#fe813451-e991-4830-9c92-565131c020ba)"><rect x="238.6" y="409.9" width="1440" height="810" fill="#fff"/></g><g clip-path="url(#fe813451-e991-4830-9c92-565131c020ba)"><rect x="238.6" y="409.9" width="1440" height="810" fill="#fff"/></g><g clip-path="url(#fe813451-e991-4830-9c92-565131c020ba)"><g clip-path="url(#fe813451-e991-4830-9c92-565131c020ba)"><g clip-path="url(#fe813451-e991-4830-9c92-565131c020ba)"><g clip-path="url(#a7cd4911-aa58-40f0-b98a-245c066ae2af)"><path d="M844.8,388.4c-274.3-93.3-233.4,221-69.3,299.4s-125.8,185.7.8,284.7c69.8,54.5,378.9-37.9,632.3-68.2,276-33.2,249.2-315.1,170.4-473.4-48.4-97.8-282.6-286.9-401-108.4,0,0-59,159.2-333.2,65.9" transform="translate(238.6 409.9)" fill="#ffe9ab"/></g></g></g></g><g clip-path="url(#fe813451-e991-4830-9c92-565131c020ba)"><g clip-path="url(#fe813451-e991-4830-9c92-565131c020ba)"><g clip-path="url(#fe813451-e991-4830-9c92-565131c020ba)"><g clip-path="url(#beaf754c-5bec-4f96-af36-de4c938db668)"><path d="M1135,84.8a174.9,174.9,0,0,0,3.8,23.9c-10,15.1-12.4,33.4-4.9,48.9s24.3,25.5,43.1,26.7a173.4,173.4,0,0,0,17,17.3c-33.2,6.1-65.7-7.1-79.1-34.6S1110.8,107.2,1135,84.8Z" transform="translate(238.6 409.9)" fill="#081211"/><circle cx="1549.4" cy="479.2" r="176.5" fill="#081211"/><path d="M1431.8-59.3a185,185,0,0,1,16.5,17.8c18,1.5,33.9,10.8,41.5,26.4s4.9,34.9-5.8,50.2a178.5,178.5,0,0,1,3.1,24.1c25.4-22.3,35.2-56,21.8-83.6S1464.4-64.5,1431.8-59.3Z" transform="translate(238.6 409.9)" fill="#081211"/><circle cx="1312.5" cy="71.6" r="153.9" transform="translate(572.4 1359) rotate(-45)" fill="#f3d5af"/><circle cx="1366.6" cy="-12.3" r="33.4" transform="translate(281.4 737.2) rotate(-13.9)" fill="#cd1918"/><path d="M1371.2-13.5l18.9-11.8.6-.3h.6a.8.8,0,0,1,.7,0h.6l.6.2.5.4.5.5.3.6a32.2,32.2,0,0,1,1.4,4.4,24.4,24.4,0,0,1,.7,4.6,24.6,24.6,0,0,1,.1,4.7c-.2,1.5-.4,3-.7,4.5a33.6,33.6,0,0,1-1.4,4.5,41.1,41.1,0,0,1-2.1,4.2,31.9,31.9,0,0,1-2.6,3.8,33.4,33.4,0,0,1-3.2,3.3l-.6.4-.6.3h-1.3l-.6-.2-.6-.3-.5-.4-.4-.5L1370.3-9.3h0a.3.3,0,0,1,0-.4h.5l13.4,8.9.9.4,1,.2h1l.9-.2.9-.5a2.3,2.3,0,0,0,.7-.7,1.6,1.6,0,0,0,.6-.8,1.6,1.6,0,0,0,.3-.9l1.5-6.3a3.4,3.4,0,0,0,.1-1,3.4,3.4,0,0,0-.1-1,3.6,3.6,0,0,0-.4-.9,2.2,2.2,0,0,0-.5-.8l-.8-.7-.9-.4-1-.2a1.7,1.7,0,0,0-1,0l-16.3,2.3c-.2,0-.3,0-.4-.2s0-.3.1-.4Z" transform="translate(238.6 409.9)" fill="#cd564a"/><path d="M1344.7,3.1l18.8-11.8h.2c.2-.1.3-.1.4.1s.2.3.1.4l-9,13.5-.5.9a3.6,3.6,0,0,0-.2,1v1l.3.9a7.9,7.9,0,0,0,.4.9l.7.8.8.5,1,.4L1364,13l.9.2,1-.2,1-.3.8-.6a2.4,2.4,0,0,0,.6-.8,1.9,1.9,0,0,0,.5-.9,2.9,2.9,0,0,0,.2-.9,1.7,1.7,0,0,0,0-1l-2.3-16.3c0-.2,0-.3.2-.4s.3,0,.4.1l.3.4,11.8,18.8a.9.9,0,0,1,.3.6,1.9,1.9,0,0,1,.2.7V13c0,.2-.1.5-.1.7l-.3.6-.4.5a1,1,0,0,1-.5.4c-.2.1-.3.3-.5.3a39.6,39.6,0,0,1-4.5,1.5,34,34,0,0,1-4.6.7,35.3,35.3,0,0,1-4.6,0,24.4,24.4,0,0,1-4.6-.7,22.5,22.5,0,0,1-4.4-1.4,20.3,20.3,0,0,1-4.2-2,32.8,32.8,0,0,1-3.8-2.7,25.4,25.4,0,0,1-3.4-3.2l-.4-.5a1.4,1.4,0,0,1-.2-.6,1.5,1.5,0,0,1-.1-.7.6.6,0,0,1,0-.6c0-.2.1-.5.1-.7l.3-.6c.2-.1.3-.3.5-.5Z" transform="translate(238.6 409.9)" fill="#cd564a"/><path d="M1351-34.2l11.8,18.8v.2a.2.2,0,0,1-.1.4c-.1.1-.2.1-.4,0l-13.5-8.9-.8-.4-1-.3h-1l-1,.2-.8.5a2.7,2.7,0,0,0-.8.7,2.2,2.2,0,0,0-.5.8,3.6,3.6,0,0,0-.4.9l-1.5,6.3c0,.3-.1.6-.1,1a4.4,4.4,0,0,0,.2,1,3.2,3.2,0,0,0,.3.9l.6.8a2.7,2.7,0,0,0,.8.7l.9.4.9.2h1l16.3-2.3.3.2a.3.3,0,0,1,0,.4l-.5.3L1343,.5l-.6.3-.6.2h-1.3l-.6-.3-.6-.4-.4-.5-.3-.5a23.5,23.5,0,0,1-1.4-4.5,35.4,35.4,0,0,1-.8-4.5,36.9,36.9,0,0,1,0-4.7,36.5,36.5,0,0,1,.7-4.6,22.5,22.5,0,0,1,1.4-4.4,27.1,27.1,0,0,1,2-4.2,32.8,32.8,0,0,1,2.7-3.8,34,34,0,0,1,3.2-3.4l.5-.4.6-.2.7-.2h.7l.6.2.6.3.5.4A2.1,2.1,0,0,1,1351-34.2Z" transform="translate(238.6 409.9)" fill="#cd564a"/><circle cx="1309.1" cy="73" r="33.4" transform="translate(673.3 1459.8) rotate(-51.4)" fill="#cd1918"/><path d="M1297.5,45a25.9,25.9,0,0,1,4.5-1.4,34,34,0,0,1,4.6-.8h4.6a36.5,36.5,0,0,1,4.6.7,32.2,32.2,0,0,1,4.4,1.4,40.9,40.9,0,0,1,4.2,2,32.8,32.8,0,0,1,3.8,2.7c1.2,1,2.3,2.1,3.4,3.2l.3.5c.2.2.2.4.3.6a1.7,1.7,0,0,1,.1.7v.6c0,.3-.1.5-.1.7l-.3.6c-.2.1-.3.3-.5.5l-.5.4-18.8,11.8c-.2.1-.3,0-.4-.1a.3.3,0,0,1,0-.4l8.8-13.4.4-.8a4.4,4.4,0,0,0,.2-1,1.7,1.7,0,0,0,0-1,3.6,3.6,0,0,0-.2-1l-.5-.9-.7-.7-.8-.5-.9-.4-6.3-1.5h-1l-1,.2-.9.3-.8.6a2.7,2.7,0,0,0-.7.8,1.9,1.9,0,0,0-.4.9,2.9,2.9,0,0,0-.2.9,1.7,1.7,0,0,0,0,1l2.3,16.3a.5.5,0,0,1-.2.4h-.4l-.4-.5-11.8-18.8-.3-.6a1.5,1.5,0,0,1-.1-.7,1.3,1.3,0,0,1-.1-.6c.1-.2.1-.4.2-.6a1.4,1.4,0,0,1,.2-.6l.4-.5a1.2,1.2,0,0,1,.5-.5Z" transform="translate(238.6 409.9)" fill="#cd564a"/><path d="M1313.7,71.8,1332.6,60c.2-.2.4-.2.6-.3l.6-.2h1.3l.6.3a2.9,2.9,0,0,1,.9.9,1.3,1.3,0,0,1,.4.6,32.2,32.2,0,0,1,1.4,4.4,23.2,23.2,0,0,1,.7,4.6,17.7,17.7,0,0,1,0,4.6,34,34,0,0,1-.6,4.6,32.2,32.2,0,0,1-1.4,4.4,27.4,27.4,0,0,1-2.1,4.2,31.9,31.9,0,0,1-2.6,3.8c-1,1.2-2.1,2.3-3.2,3.4l-.6.4-.6.2h-.6a.8.8,0,0,1-.7,0h-.6l-.6-.3-.5-.4-.4-.6-11.8-18.8h0c-.1-.2-.1-.3,0-.4s.3-.2.5-.1l13.4,8.9.9.5,1,.2h1l.9-.3.9-.4a4.6,4.6,0,0,0,.7-.7,4.2,4.2,0,0,0,.6-.8,3.8,3.8,0,0,0,.3-1l1.5-6.3a2.8,2.8,0,0,0,.1-.9,3.1,3.1,0,0,0-.1-1,3,3,0,0,0-.4-1,3.5,3.5,0,0,0-.5-.8l-.8-.6-.9-.5-1-.2h-1l-16.4,2.4-.3-.2c-.1-.2,0-.3.1-.4Z" transform="translate(238.6 409.9)" fill="#cd564a"/><path d="M1287.2,88.4,1306,76.6h.2a.2.2,0,0,1,.4.1.3.3,0,0,1,0,.4l-8.9,13.5a4.1,4.1,0,0,0-.5.9,3,3,0,0,0-.2,1,1.7,1.7,0,0,0,0,1,2.9,2.9,0,0,0,.2.9l.5.9.7.8.8.5a1.7,1.7,0,0,0,1,.3l6.2,1.5,1,.2,1-.2.9-.3.9-.6.6-.8a1.9,1.9,0,0,0,.5-.9,2.9,2.9,0,0,0,.2-.9v-1l-2.3-16.4c0-.1,0-.2.2-.3s.2,0,.3.1l.4.4,11.8,18.8.3.6a6.4,6.4,0,0,1,.2.7v.6a1.9,1.9,0,0,1-.2.7,1.4,1.4,0,0,1-.2.6l-.4.5-.5.4-.6.3a22.5,22.5,0,0,1-4.4,1.4,23.3,23.3,0,0,1-4.6.8h-4.6a34,34,0,0,1-4.6-.7,32.2,32.2,0,0,1-4.4-1.4,27.1,27.1,0,0,1-4.2-2,32.8,32.8,0,0,1-3.8-2.7c-1.2-1-2.3-2.1-3.4-3.2a1,1,0,0,0-.4-.5c-.1-.2-.1-.4-.2-.6a2,2,0,0,1-.1-.7c-.1-.2,0-.4,0-.6s.1-.5.1-.7l.3-.6a1,1,0,0,0,.4-.5Z" transform="translate(238.6 409.9)" fill="#cd564a"/><path d="M1293.5,51l11.8,18.8V70c.1.2.1.3-.1.4s-.3.2-.4.1l-13.5-8.9-.8-.5-1-.2h-1a3.8,3.8,0,0,0-1,.3l-.9.4-.7.7a3.5,3.5,0,0,0-.5.8,3,3,0,0,0-.4,1l-1.5,6.2a3.8,3.8,0,0,0-.1,1,3,3,0,0,0,.2,1,2.4,2.4,0,0,0,.3.9l.6.9.8.6.9.5.9.2h1l16.3-2.3c.1-.1.2,0,.3.2a.2.2,0,0,1,0,.3l-.5.4-18.8,11.8-.6.3h-1.3l-.6-.2-.6-.2-.6-.4-.4-.5-.3-.6a22.5,22.5,0,0,1-1.4-4.4,34,34,0,0,1-.8-4.6,35.3,35.3,0,0,1,0-4.6,23.2,23.2,0,0,1,.7-4.6,25.9,25.9,0,0,1,1.4-4.5,31.1,31.1,0,0,1,2-4.1,26,26,0,0,1,2.7-3.8,25.8,25.8,0,0,1,3.2-3.4l.5-.4.6-.3h1.4l.6.2a.9.9,0,0,1,.6.3,2.9,2.9,0,0,1,.9.9Z" transform="translate(238.6 409.9)" fill="#cd564a"/><circle cx="1330.3" cy="163.8" r="33.4" transform="translate(787.3 1662.7) rotate(-61.4)" fill="#cd1918"/><path d="M1318.8,135.9a32.6,32.6,0,0,1,4.4-1.5,34,34,0,0,1,4.6-.7h4.6a23.2,23.2,0,0,1,4.6.7,31.9,31.9,0,0,1,4.4,1.3,27.4,27.4,0,0,1,4.2,2.1,26,26,0,0,1,3.8,2.7,25.4,25.4,0,0,1,3.4,3.2l.4.5a1.4,1.4,0,0,1,.2.6c.1.2.1.4.2.6a1.5,1.5,0,0,1-.1.7,1.3,1.3,0,0,1-.1.6l-.3.6-.4.5-.5.4L1333.3,160h-.4a.5.5,0,0,1,0-.5l8.8-13.3a3.6,3.6,0,0,0,.4-.9l.3-1a3.8,3.8,0,0,0-.1-1,2.9,2.9,0,0,0-.2-.9,4.1,4.1,0,0,0-.5-.9,2.3,2.3,0,0,0-.7-.7,2.4,2.4,0,0,0-.8-.6l-.9-.3-6.3-1.5h-2l-.9.4a1.6,1.6,0,0,0-.8.6l-.7.7-.4.9a3,3,0,0,0-.2,1,1.7,1.7,0,0,0,0,1l2.3,16.3c0,.1,0,.3-.2.3h-.4l-.4-.6-11.8-18.8-.3-.6c0-.2-.1-.4-.1-.6a.8.8,0,0,1,0-.7,1.3,1.3,0,0,1,.1-.6c.1-.2.1-.4.2-.6l.4-.5.5-.4A.9.9,0,0,1,1318.8,135.9Z" transform="translate(238.6 409.9)" fill="#cd564a"/><path d="M1335,162.6l18.8-11.8.6-.3h1.9l.6.2.5.4.5.5.3.6a32.2,32.2,0,0,1,1.4,4.4,36.1,36.1,0,0,1,.8,9.3,35,35,0,0,1-.7,4.5,33.6,33.6,0,0,1-1.4,4.5c-.6,1.4-1.3,2.8-2,4.2a32.8,32.8,0,0,1-2.7,3.8,33.4,33.4,0,0,1-3.2,3.3l-.5.4-.6.3H1348l-.7-.2-.6-.3-.5-.4-.4-.5L1334,166.8h0a.3.3,0,0,1,0-.4.5.5,0,0,1,.5,0l13.4,8.9.9.4,1,.2h1l1-.2.8-.5.8-.7a2.2,2.2,0,0,0,.5-.8,3.6,3.6,0,0,0,.4-.9l1.5-6.3c0-.3.1-.7.1-1a3.6,3.6,0,0,0-.2-1l-.3-.9-.6-.8-.8-.7-.9-.4-1-.2h-1l-16.3,2.3c-.2,0-.3,0-.4-.2a.8.8,0,0,1,.1-.4C1334.6,162.9,1334.8,162.8,1335,162.6Z" transform="translate(238.6 409.9)" fill="#cd564a"/><path d="M1308.4,179.3l18.9-11.8h.1c.2-.1.3-.1.5.1s.1.2,0,.4l-9,13.5a3.6,3.6,0,0,0-.4.9l-.3,1a3.8,3.8,0,0,0,.1,1,2.9,2.9,0,0,0,.2.9,4.1,4.1,0,0,0,.5.9l.7.7.8.6.9.3,6.3,1.5h2l.9-.4.8-.5.7-.8a3.6,3.6,0,0,0,.4-.9,2.9,2.9,0,0,0,.3-1,3.8,3.8,0,0,0-.1-1l-2.3-16.3c0-.1.1-.2.2-.3h.4l.4.5,11.8,18.7.3.6a6.4,6.4,0,0,1,.2.7v.6c0,.2-.1.4-.1.7l-.3.6-.4.5-.5.4-.6.3a22.5,22.5,0,0,1-4.4,1.4,23.3,23.3,0,0,1-4.6.8h-4.6a23.2,23.2,0,0,1-4.6-.7,22.5,22.5,0,0,1-4.4-1.4,20.3,20.3,0,0,1-4.2-2,26,26,0,0,1-3.8-2.7,34,34,0,0,1-3.4-3.2l-.4-.5c-.1-.2-.1-.4-.2-.6a1.3,1.3,0,0,1-.1-.6v-.7c0-.2.1-.4.1-.6l.3-.6.4-.5Z" transform="translate(238.6 409.9)" fill="#cd564a"/><path d="M1314.7,141.9l11.8,18.8v.2a.2.2,0,0,1-.1.4h-.4l-13.4-8.9-.9-.4-1-.3h-1l-1,.2-.8.5-.8.7a2.2,2.2,0,0,0-.5.8,3.6,3.6,0,0,0-.4.9l-1.5,6.3c0,.3-.1.6-.1,1a4.4,4.4,0,0,0,.2,1l.3.9.6.8.8.7.9.4.9.2a1.7,1.7,0,0,0,1,0l16.3-2.3c.2,0,.3.1.3.2a.3.3,0,0,1,0,.4l-.5.3-18.8,11.9-.6.2-.6.2h-1.3l-.6-.3a1,1,0,0,1-.5-.4l-.5-.5-.3-.5a23.5,23.5,0,0,1-1.4-4.5,23.2,23.2,0,0,1-.7-4.6,23.6,23.6,0,0,1-.1-4.6c.2-1.6.4-3.1.7-4.6s.9-3,1.4-4.4a27.4,27.4,0,0,1,2.1-4.2,32.8,32.8,0,0,1,2.7-3.8,25.4,25.4,0,0,1,3.2-3.4l.5-.4.6-.2h1.9l.6.3.5.4A2.1,2.1,0,0,1,1314.7,141.9Z" transform="translate(238.6 409.9)" fill="#cd564a"/><circle cx="1253.4" cy="-21.2" r="33.4" transform="translate(466.1 1109.1) rotate(-34.1)" fill="#cd1918"/><path d="M1258-22.4l18.8-11.8.6-.3h1.3l.6.2.6.2.5.4.5.5.3.6a22.5,22.5,0,0,1,1.4,4.4,24.4,24.4,0,0,1,.7,4.6,23.6,23.6,0,0,1,.1,4.6,34,34,0,0,1-.7,4.6,33.6,33.6,0,0,1-1.4,4.5c-.6,1.4-1.3,2.8-2,4.1a27,27,0,0,1-2.7,3.9,33.4,33.4,0,0,1-3.2,3.3l-.5.4-.6.3H1271l-.7-.2-.6-.3-.5-.4-.4-.5L1257-18.3h0a.2.2,0,0,1,.1-.4c.1-.1.2-.1.4,0l13.4,8.9.9.4,1,.2h1l1-.2.8-.5.8-.7a2.2,2.2,0,0,0,.5-.8,3.6,3.6,0,0,0,.4-.9l1.5-6.3c0-.3.1-.7.1-1a3.6,3.6,0,0,0-.2-1l-.3-.9-.6-.8-.8-.7-.9-.4-1-.2h-.9l-16.4,2.3c-.2,0-.3,0-.4-.2a.6.6,0,0,1,.1-.4C1257.6-22.1,1257.8-22.2,1258-22.4Z" transform="translate(238.6 409.9)" fill="#cd564a"/><path d="M1231.5-5.7l18.8-11.9h.2c.1-.1.3,0,.4.1a.3.3,0,0,1,0,.4l-9,13.5-.4.9a3.6,3.6,0,0,0-.2,1,1.7,1.7,0,0,0,0,1,3.6,3.6,0,0,0,.2,1,5.6,5.6,0,0,0,.5.8,2.7,2.7,0,0,0,.7.8l.8.5.9.4,6.3,1.5h2l.9-.4.9-.6.6-.7.5-.9a4.4,4.4,0,0,0,.2-1v-1l-2.3-16.3c-.1-.2,0-.3.1-.4h.4l.4.4,11.8,18.9a3.3,3.3,0,0,1,.3.6,1.3,1.3,0,0,1,.1.6,1.3,1.3,0,0,1,.1.6,6.4,6.4,0,0,1-.2.7,1.4,1.4,0,0,1-.2.6l-.4.5-.5.4-.6.4-4.4,1.4a34,34,0,0,1-4.6.7,23.6,23.6,0,0,1-4.6,0,34,34,0,0,1-4.6-.6l-4.5-1.4a31.7,31.7,0,0,1-4.1-2.1,36.2,36.2,0,0,1-3.8-2.6,34.7,34.7,0,0,1-3.4-3.2,2.1,2.1,0,0,1-.4-.6l-.3-.6c0-.2-.1-.4-.1-.6v-.7c.1-.2.1-.4.2-.6a1.6,1.6,0,0,1,.3-.6l.4-.5Z" transform="translate(238.6 409.9)" fill="#cd564a"/><circle cx="1223.4" cy="107.1" r="33.4" transform="translate(684.1 1467.3) rotate(-55.7)" fill="#cd1918"/><path d="M1211.9,79.1a32.2,32.2,0,0,1,4.4-1.4,23.2,23.2,0,0,1,4.6-.7,23.6,23.6,0,0,1,4.6-.1,34,34,0,0,1,4.6.7,38.8,38.8,0,0,1,4.5,1.4l4.1,2a26,26,0,0,1,3.8,2.7,34.7,34.7,0,0,1,3.4,3.2l.4.5a1.4,1.4,0,0,1,.2.6,6.4,6.4,0,0,0,.2.7,1.3,1.3,0,0,1-.1.6,1.5,1.5,0,0,1-.1.7l-.3.6-.4.5-.5.4-18.9,11.8c-.1.1-.3,0-.4-.1a.3.3,0,0,1,0-.4l8.8-13.4a2,2,0,0,0,.4-.8,5.4,5.4,0,0,0,.3-1v-1l-.3-1a2.2,2.2,0,0,0-.5-.8l-.6-.8-.9-.5-.9-.4-6.3-1.5h-1l-1,.2-.9.3-.8.6a2.4,2.4,0,0,0-.6.8,1.9,1.9,0,0,0-.5.9,2.9,2.9,0,0,0-.2.9v1l2.3,16.3c0,.2,0,.3-.2.4s-.2,0-.4-.1l-.4-.5-11.8-18.8-.3-.6c0-.2-.1-.4-.1-.6v-.7a1.3,1.3,0,0,1,.1-.6c.1-.2.1-.4.3-.6l.3-.5.5-.5Z" transform="translate(238.6 409.9)" fill="#cd564a"/><path d="M1228.1,105.9l18.8-11.8.6-.3.6-.2h1.3l.6.3.6.4.4.5.3.6a22.5,22.5,0,0,1,1.4,4.4,34,34,0,0,1,.8,4.6,35.3,35.3,0,0,1,0,4.6,34,34,0,0,1-.7,4.6,32.2,32.2,0,0,1-1.4,4.4,27.1,27.1,0,0,1-2,4.2,26,26,0,0,1-2.7,3.8c-1,1.2-2.1,2.3-3.2,3.4l-.5.4-.6.2h-.7a.6.6,0,0,1-.6,0h-.7l-.6-.3-.5-.4a1,1,0,0,0-.4-.5L1227.1,110h0c-.1-.2-.1-.3.1-.4s.2-.2.4-.1l13.4,8.9.9.5,1,.2h1a3.8,3.8,0,0,0,1-.3l.8-.4.8-.7a3.5,3.5,0,0,0,.5-.8,3,3,0,0,0,.4-1l1.5-6.2c0-.4.1-.7.1-1a11,11,0,0,0-.5-2l-.6-.8-.8-.6-.9-.5-.9-.2h-1l-16.4,2.4-.4-.2c0-.2,0-.3.1-.4Z" transform="translate(238.6 409.9)" fill="#cd564a"/><path d="M1201.5,122.5l18.8-11.8h.2c.2-.1.3,0,.4.1a.2.2,0,0,1,.1.4l-9,13.5-.5.9c-.1.3-.1.7-.2,1v1l.3.9a1.9,1.9,0,0,0,.5.9c.1.3.4.5.6.8l.8.5,1,.4,6.3,1.4,1,.2.9-.2a2.9,2.9,0,0,0,1-.3l.8-.6.7-.8a3.9,3.9,0,0,0,.4-.9,2.9,2.9,0,0,0,.2-.9,1.7,1.7,0,0,0,0-1l-2.3-16.3a.5.5,0,0,1,.2-.4c.1-.1.3,0,.4.1l.3.4,11.9,18.8.3.6a6.4,6.4,0,0,1,.2.7v.6a2.5,2.5,0,0,1-.2.7,1.4,1.4,0,0,1-.2.6l-.4.5-.5.4-.6.3a22.5,22.5,0,0,1-4.4,1.4,23.3,23.3,0,0,1-4.6.8h-4.6a23.2,23.2,0,0,1-4.6-.7,25.9,25.9,0,0,1-4.5-1.4,22.2,22.2,0,0,1-4.1-2,26,26,0,0,1-3.8-2.7,25.8,25.8,0,0,1-3.4-3.2l-.4-.5-.3-.6c0-.2-.1-.4-.1-.7v-.6a6.4,6.4,0,0,0,.2-.7l.3-.5a2.1,2.1,0,0,1,.4-.6Z" transform="translate(238.6 409.9)" fill="#cd564a"/><path d="M1207.9,85.1l11.8,18.9h0c.1.2.1.3,0,.4s-.3.2-.5.1l-13.4-8.9-.9-.5-1-.2h-1a3.2,3.2,0,0,0-.9.3l-.9.4-.8.7a3.5,3.5,0,0,0-.5.8,4.2,4.2,0,0,0-.4,1l-1.4,6.2a1.8,1.8,0,0,0-.1,1,3.1,3.1,0,0,0,.1,1,3,3,0,0,0,.4,1,3.5,3.5,0,0,0,.5.8l.8.6.9.5,1,.2h1l16.2-2.3c.2,0,.3,0,.4.2s0,.3-.1.4l-.4.3-18.8,11.8-.6.3-.7.2h-1.3l-.6-.3-.5-.4a1,1,0,0,1-.4-.5l-.3-.5a39.6,39.6,0,0,1-1.5-4.5,34,34,0,0,1-.7-4.6,35.3,35.3,0,0,1,0-4.6,23.2,23.2,0,0,1,.7-4.6,25.9,25.9,0,0,1,1.4-4.5,22.2,22.2,0,0,1,2-4.1,33.9,33.9,0,0,1,2.7-3.9,25,25,0,0,1,3.2-3.3l.5-.4.6-.3h1.3l.7.2.5.3a1,1,0,0,1,.5.4Z" transform="translate(238.6 409.9)" fill="#cd564a"/><path d="M1301.5,10.3a2.7,2.7,0,0,0,.7-.8,2,2,0,0,0,.2-1.3,8.5,8.5,0,0,0-.8-2.4,9.4,9.4,0,0,0-1.2-2.2,10.2,10.2,0,0,0-1.8-1.8L1296.5.5c-2.5-1.1-5.4-1.2-7.6-2.6s-2.4-2.9-1.3-4.1a3.3,3.3,0,0,1,1.3-.7l4.1-1.6a3.7,3.7,0,0,1-.1-1.8,2.9,2.9,0,0,1,.9-1.6,10.6,10.6,0,0,1,2.9-2.2c.3,1.2.9,2.6,2.1,2.5s1.6-1.2,2-2.2,1.5-2.1,2.4-1.5a32.7,32.7,0,0,1,4.6,13.8,9.1,9.1,0,0,0,1.6-1.1,5.7,5.7,0,0,0,1.2-1.5,5.3,5.3,0,0,0,.8-1.7,6.8,6.8,0,0,0,.3-1.9,7.4,7.4,0,0,1,0-2.1c.3-.7.9-1.3,1.6-1a1.8,1.8,0,0,1,1,.9l1.9,3.6a3.1,3.1,0,0,1,1-.5h1.1l1,.2a3.1,3.1,0,0,1,1,.5l.8.7.5.9a4.3,4.3,0,0,1,.2,1.1,4.1,4.1,0,0,1-.1,1.1l.7-.2h1.4l.6.3.5.4.5.6.3.6a1.7,1.7,0,0,1,.1.7,7,7,0,0,1-1.1,2.3,5.1,5.1,0,0,1-2.1,1.5l-13,8.3a53.3,53.3,0,0,0,9.6,6.7,16,16,0,0,1,7.6,8.6,6.8,6.8,0,0,1-1.7.9,5.8,5.8,0,0,1-1.9.3,4.1,4.1,0,0,1-1.9-.2,6.7,6.7,0,0,1-1.8-.7c1.2,1.5,2.3,3.7,1.2,5.3a2.4,2.4,0,0,1-.8.6l-.9.5h-1l-1.1-.2a9.8,9.8,0,0,1-3.4-2.3,9.7,9.7,0,0,1,.2,3.8,1.6,1.6,0,0,1-.3.9,2.2,2.2,0,0,1-.5.8l-.8.6-1,.3c-1.7.1-2.9-1.7-3.7-3.3-1.8-3.7-3.4-7.5-4.8-11.3a5,5,0,0,0-.4-1.3,7.6,7.6,0,0,0-.8-1.1l-1.1-.7L1299,20c-2.4-.7-15.5-2.6-12.5-6.8,1.4-1.9,5-.9,7-.9a11.2,11.2,0,0,0,4.1-.4A13.4,13.4,0,0,0,1301.5,10.3Z" transform="translate(238.6 409.9)" fill="#646e31"/><path d="M1282.6,128.6s20.3-.4,24.9,22.8,34.3,33.8,49.8,41.2,1.8,24-26.4,21.2S1268.1,155.1,1282.6,128.6Z" transform="translate(238.6 409.9)" fill="#f3d5af"/><path d="M1351,44.5s-40.3-21.9-28.5,23.3,25.3,31.7,48.3,60,15,4.4,18.3-22.1,54.1-.6,55.3-24.2-17.7-47.5-45.6-39.4S1351,44.5,1351,44.5Z" transform="translate(238.6 409.9)" fill="#f3d5af"/><circle cx="1408.1" cy="99.5" r="33.4" transform="translate(255.8 750.4) rotate(-13.9)" fill="#cd1918"/><path d="M1396.5,71.5a23.5,23.5,0,0,1,4.5-1.4,35.4,35.4,0,0,1,4.5-.8h4.7a36.5,36.5,0,0,1,4.6.7,34,34,0,0,1,8.6,3.4,32.8,32.8,0,0,1,3.8,2.7,25,25,0,0,1,3.3,3.2l.4.5.3.6a1.7,1.7,0,0,1,.1.7v.6a1.9,1.9,0,0,1-.2.7.5.5,0,0,1-.3.5l-.4.6-.5.4-18.8,11.8c-.2.1-.3,0-.4-.1a.2.2,0,0,1-.1-.4l8.8-13.4a1.9,1.9,0,0,0,.5-.9,2.9,2.9,0,0,0,.2-.9,1.7,1.7,0,0,0,0-1,3.6,3.6,0,0,0-.2-1l-.5-.9-.7-.7-.8-.5-1-.4-6.2-1.5h-2l-.9.4-.8.6a2.7,2.7,0,0,0-.7.8,2,2,0,0,0-.4.8,5.4,5.4,0,0,0-.3,1,3.1,3.1,0,0,0,.1,1l2.3,16.3a.5.5,0,0,1-.2.4h-.4l-.4-.5-11.8-18.9-.3-.5a6.4,6.4,0,0,1-.2-.7V74a1766075457874.8,1766075457874.8,0,0,0,.4-1.2l.4-.6.5-.4Z" transform="translate(238.6 409.9)" fill="#cd564a"/><path d="M1412.7,98.3l18.9-11.8a.6.6,0,0,1,.6-.3l.6-.2h1.3l.6.3.5.4a1,1,0,0,1,.4.5c.2.2.3.3.3.5a39.6,39.6,0,0,1,1.5,4.5,34,34,0,0,1,.7,4.6,35.3,35.3,0,0,1,0,4.6,24.4,24.4,0,0,1-.7,4.6,31.9,31.9,0,0,1-1.3,4.4,27.4,27.4,0,0,1-2.1,4.2c-.8,1.3-1.7,2.6-2.6,3.8a35.1,35.1,0,0,1-3.3,3.4l-.5.3c-.2.2-.4.2-.6.3h-.6c-.2.1-.5,0-.7,0h-.6l-.6-.3c-.2-.2-.4-.3-.5-.5a1,1,0,0,1-.4-.5l-11.8-18.8h-.1c0-.2,0-.3.1-.4a.2.2,0,0,1,.4-.1l13.5,8.9.9.5,1,.2h1l.9-.3.9-.5c.3-.1.5-.4.7-.6l.6-.9.3-.9,1.5-6.3a3.1,3.1,0,0,0,.1-1,2.8,2.8,0,0,0-.1-.9,3,3,0,0,0-.4-1,2.1,2.1,0,0,0-.6-.8l-.7-.6-.9-.5-1-.2h-1l-16.4,2.4-.3-.2c-.1-.2-.1-.3,0-.4S1412.5,98.4,1412.7,98.3Z" transform="translate(238.6 409.9)" fill="#cd564a"/><path d="M1386.2,114.9l18.8-11.8h.2c.2-.1.3,0,.4.1s.2.3.1.4l-9,13.5a4.1,4.1,0,0,0-.5.9,3.6,3.6,0,0,0-.2,1v1a5.4,5.4,0,0,0,.3,1l.4.8.7.8.8.5,1,.4,6.3,1.5h.9l1-.2a2.9,2.9,0,0,0,1-.3l.8-.6.6-.7a4.1,4.1,0,0,0,.5-.9,4.4,4.4,0,0,0,.2-1,1.7,1.7,0,0,0,0-1l-2.3-16.3c0-.2,0-.3.2-.4h.4l.3.4,11.8,18.9c.2.1.2.3.3.5s.1.5.2.7v.6c0,.2-.1.4-.1.6a1.6,1.6,0,0,1-.3.6,2.1,2.1,0,0,1-.4.6l-.5.4-.5.3a24.9,24.9,0,0,1-4.4,1.4,40.4,40.4,0,0,1-4.6.8h-4.7a24.4,24.4,0,0,1-4.6-.7,22.5,22.5,0,0,1-4.4-1.4,40,40,0,0,1-4.2-2,32.8,32.8,0,0,1-3.8-2.7,25,25,0,0,1-3.3-3.2l-.4-.5-.3-.6c0-.2-.1-.4-.1-.7v-.6a1.9,1.9,0,0,1,.2-.7.5.5,0,0,1,.3-.5,1,1,0,0,1,.4-.5C1385.8,115.2,1386,115.1,1386.2,114.9Z" transform="translate(238.6 409.9)" fill="#cd564a"/><path d="M1392.5,77.5l11.9,18.9h0c.1.2.1.3,0,.4s-.3.2-.5.1l-13.4-8.9-.9-.5-1-.2a1.7,1.7,0,0,0-1,0l-.9.2-.9.5-.7.7a2.4,2.4,0,0,0-.6.8,3.2,3.2,0,0,0-.3.9l-1.5,6.3a5,5,0,0,0,0,2,3.6,3.6,0,0,0,.4.9,1.6,1.6,0,0,0,.6.8,2.3,2.3,0,0,0,.7.7l.9.4,1,.3h1l16.2-2.3.4.2c0,.2,0,.3-.1.4l-.4.4-18.9,11.8-.6.3H1382c-.2-.1-.4-.1-.6-.3l-.5-.3-.4-.5-.4-.6c-.5-1.4-1-2.9-1.4-4.4a36.5,36.5,0,0,1-.7-4.6,24.6,24.6,0,0,1,0-4.7,38.7,38.7,0,0,1,.6-4.6c.4-1.5.9-2.9,1.4-4.4a41.1,41.1,0,0,1,2.1-4.2c.8-1.3,1.7-2.6,2.6-3.8a33.4,33.4,0,0,1,3.2-3.3l.6-.4.6-.3h1.3l.6.2.6.3a1,1,0,0,1,.5.4Z" transform="translate(238.6 409.9)" fill="#cd564a"/><path d="M1177.7,86.2S1204,91,1212,105.9s13.8,9.3,26.2,16.7,19.4,23.6,1.8,28.8-36.3,12.7-48.1-14.7A195.9,195.9,0,0,1,1177.7,86.2Z" transform="translate(238.6 409.9)" fill="#f3d5af"/><path d="M1214-18.4s18.3-13.9,36.1,5.4S1274-6.6,1278,8.5s-2.1,24.9-20,21S1171.1,3.6,1214-18.4Z" transform="translate(238.6 409.9)" fill="#f3d5af"/><path d="M1216.9,52a2.3,2.3,0,0,0,.7-.7,2.3,2.3,0,0,0,.2-1.4,11.3,11.3,0,0,0-.8-2.4,7.2,7.2,0,0,0-1.2-2.1,10.2,10.2,0,0,0-1.8-1.8,12,12,0,0,0-2.1-1.3c-2.5-1.1-5.4-1.2-7.6-2.7s-2.4-2.8-1.3-4a3.5,3.5,0,0,1,1.3-.8l4.1-1.5a3.7,3.7,0,0,1-.1-1.8,2.8,2.8,0,0,1,.9-1.7,10.3,10.3,0,0,1,2.9-2.1c.3,1.1,1,2.5,2.1,2.5s1.7-1.3,2.1-2.3,1.5-2,2.4-1.5a34.2,34.2,0,0,1,4.6,13.8,5.7,5.7,0,0,0,1.6-1.1,9.8,9.8,0,0,0,1.2-1.5,8.9,8.9,0,0,0,.8-1.7,12.3,12.3,0,0,0,.2-1.9,7.4,7.4,0,0,1,.1-2.1c.2-.7.9-1.3,1.6-1a2.2,2.2,0,0,1,.9,1l2,3.5,1-.4,1-.2,1.1.2.9.5.8.7a3.1,3.1,0,0,1,.5,1,3.8,3.8,0,0,1,.3,1,3.7,3.7,0,0,1-.1,1.1l.6-.2h.7l.7.2.7.2.5.5.5.5a1.4,1.4,0,0,1,.2.6,2.5,2.5,0,0,1,.2.7,5.1,5.1,0,0,1-1.2,2.3,5.3,5.3,0,0,1-2,1.6l-13,8.2a57,57,0,0,0,9.6,6.7,14.7,14.7,0,0,1,4.6,3.6,18.3,18.3,0,0,1,3.1,5,5.6,5.6,0,0,1-1.7.9l-1.9.4-2-.2a5.3,5.3,0,0,1-1.7-.8c1.2,1.5,2.2,3.7,1.2,5.3l-.8.7-1,.4h-1l-1-.2a10.1,10.1,0,0,1-3.5-2.3,9.8,9.8,0,0,1,.3,3.8l-.3.9-.6.8a2.4,2.4,0,0,1-.8.6l-.9.3c-1.8.1-3-1.7-3.7-3.3-1.8-3.7-3.4-7.5-4.8-11.3a5,5,0,0,0-.5-1.3,3.9,3.9,0,0,0-.8-1l-1.1-.8-1.3-.4c-2.4-.7-15.5-2.6-12.5-6.8,1.4-1.9,5-.9,7-.9A13,13,0,0,0,1216.9,52Z" transform="translate(238.6 409.9)" fill="#646e31"/><path d="M1325.6,95.1v-.6l-.5-.6a6.4,6.4,0,0,0-2.7-1.1,7.2,7.2,0,0,0-2.9.3c-1.5.5-2.7,1.7-4.3,2s-2.2-.2-2.2-1.2a1.3,1.3,0,0,1,.3-.8l1-2.3a1.8,1.8,0,0,1-.7-.8,1.7,1.7,0,0,1-.3-1,7.1,7.1,0,0,1,.3-2.1c.6.3,1.5.6,1.9.1s.2-1.2,0-1.8-.2-1.4.4-1.6a20.6,20.6,0,0,1,7.6,4,4.1,4.1,0,0,0,.1-2.2,4.7,4.7,0,0,0-1-2,2.6,2.6,0,0,1-.9-.9c-.1-.4-.1-.9.3-1.1h.8l2.3.7a2.1,2.1,0,0,1,.6-1,1.6,1.6,0,0,1,1.1-.5,2.5,2.5,0,0,1,1.2.1,3.9,3.9,0,0,1,1,.8c0-.2.1-.3.3-.5a1,1,0,0,1,.5-.4l.7-.2.6.2.5.3a2.4,2.4,0,0,1,.5,1.4,2.6,2.6,0,0,1-.2,1.5l-2.1,8.8a32.1,32.1,0,0,0,6.8-1.1,12.7,12.7,0,0,1,3.4-.4,10.2,10.2,0,0,1,3.3.9,4.9,4.9,0,0,1-.4,1.1,2.4,2.4,0,0,1-.6.9l-.9.7-1.1.4c1.1.2,2.5.6,2.7,1.8a2.7,2.7,0,0,1-.3,1.2,2.4,2.4,0,0,1-.9.8,5.1,5.1,0,0,1-2.4.4,8,8,0,0,1,1.7,1.5,2.3,2.3,0,0,1,.3,1.1,1.5,1.5,0,0,1-.4,1.1c-.7.7-1.9.5-2.9.1a55.8,55.8,0,0,1-6.7-2.8,2.3,2.3,0,0,0-1.4-.4,2.4,2.4,0,0,0-1.5.4c-1.3.7-7.6,5.2-8.1,2.3s1.8-2.5,2.7-3.3A7.8,7.8,0,0,0,1325.6,95.1Z" transform="translate(238.6 409.9)" fill="#646e31"/><path d="M1286.6,168.7a3.4,3.4,0,0,0,.1-1,2,2,0,0,0-.9-1.1,9.4,9.4,0,0,0-2.2-1.2,6.1,6.1,0,0,0-2.4-.7h-2.5l-2.4.6c-2.5.9-4.7,2.8-7.3,3.4s-3.8-.4-3.8-2.1a3.4,3.4,0,0,1,.5-1.4l1.8-4a2.7,2.7,0,0,1-1.3-1.3,3.4,3.4,0,0,1-.5-1.7,10.5,10.5,0,0,1,.6-3.6c1,.6,2.4,1.1,3.3.3s.2-2-.1-3-.4-2.5.6-2.8a35.8,35.8,0,0,1,13,6.7,5.7,5.7,0,0,0,.3-1.8,6.8,6.8,0,0,0-.2-2,4.9,4.9,0,0,0-.6-1.7,9.1,9.1,0,0,0-1.1-1.6,4.3,4.3,0,0,1-1.4-1.6,1.4,1.4,0,0,1,.4-1.8,1.7,1.7,0,0,1,1.4.1l3.8,1.2a3,3,0,0,1,.4-1,2.7,2.7,0,0,1,.7-.8,2.4,2.4,0,0,1,.9-.6l1-.4h1.1l1,.3.9.6a3.1,3.1,0,0,1,.7.9l.3-.7c.1-.2.3-.3.5-.5l.5-.4.7-.2h1.4l.6.2.6.4a5.6,5.6,0,0,1,.4,5l-3.6,15a56.4,56.4,0,0,0,11.5-1.9,19.1,19.1,0,0,1,5.8-.6,18.3,18.3,0,0,1,5.7,1.4,6,6,0,0,1-.6,1.9,9.1,9.1,0,0,1-1.1,1.6l-1.5,1.2-1.9.7c1.9.3,4.2,1.1,4.6,2.9a4.1,4.1,0,0,1-.1,1.1,3.6,3.6,0,0,1-.4.9,2.7,2.7,0,0,1-.7.8,1.5,1.5,0,0,1-.9.6,11,11,0,0,1-4,.8,8.6,8.6,0,0,1,2.8,2.6l.4.8a3.4,3.4,0,0,1,.1,1,1.5,1.5,0,0,1-.2.9,3.6,3.6,0,0,1-.4.9c-1.2,1.3-3.3.8-4.9.2a112.6,112.6,0,0,1-11.3-4.8l-1.2-.6-1.3-.2-1.4.2-1.1.6c-2.3,1.2-13,8.9-13.8,3.8-.3-2.4,3-4.2,4.5-5.5A13.8,13.8,0,0,0,1286.6,168.7Z" transform="translate(238.6 409.9)" fill="#646e31"/><path d="M1401.8,5.6a2.1,2.1,0,0,0,0-1.1,2.8,2.8,0,0,0-.8-1.1,9.4,9.4,0,0,0-2.2-1.2,10.5,10.5,0,0,0-2.4-.6,7.1,7.1,0,0,0-2.5-.1l-2.5.5c-2.5,1-4.6,2.9-7.3,3.4s-3.7-.3-3.7-2a4.2,4.2,0,0,1,.4-1.5l1.8-3.9a5.3,5.3,0,0,1-1.3-1.3,4.8,4.8,0,0,1-.5-1.7,11.6,11.6,0,0,1,.7-3.7c1,.6,2.4,1.2,3.2.4s.3-2.1-.1-3.1-.4-2.5.7-2.7a33.2,33.2,0,0,1,12.9,6.7,10.6,10.6,0,0,0,.4-1.9,12.3,12.3,0,0,0-.2-1.9,6.7,6.7,0,0,0-.7-1.8,8.3,8.3,0,0,0-1.1-1.5,10.7,10.7,0,0,1-1.4-1.6c-.3-.6-.2-1.6.5-1.8a1.5,1.5,0,0,1,1.3,0l3.9,1.3a3,3,0,0,1,.4-1l.6-.9.9-.6,1.1-.3a1.7,1.7,0,0,1,1,0,1.7,1.7,0,0,1,1,.3l.9.6a2.7,2.7,0,0,1,.7.8,2.1,2.1,0,0,1,.4-.6,1,1,0,0,1,.4-.5l.6-.4.6-.2h1.4l.7.2.6.4a5.5,5.5,0,0,1,.7,2.4,4.8,4.8,0,0,1-.4,2.6L1409,1.1a56.2,56.2,0,0,0,11.5-1.8,14.2,14.2,0,0,1,5.8-.6A16.5,16.5,0,0,1,1432,.1l-.6,1.9a5.7,5.7,0,0,1-1.2,1.5,4.4,4.4,0,0,1-1.5,1.2,4.5,4.5,0,0,1-1.8.7c1.9.3,4.2,1.1,4.5,3a3.4,3.4,0,0,1-.1,1,1.8,1.8,0,0,1-.4,1,2.4,2.4,0,0,1-.6.8l-.9.6a9.6,9.6,0,0,1-4.1.7,10,10,0,0,1,2.8,2.6,3.6,3.6,0,0,1,.4.9,2.9,2.9,0,0,1,.2.9,3,3,0,0,1-.2,1,2.2,2.2,0,0,1-.5.8c-1.1,1.3-3.2.9-4.9.3-3.8-1.4-7.6-3-11.3-4.8a3.4,3.4,0,0,0-1.2-.6,2.7,2.7,0,0,0-1.3-.2l-1.3.2a3.4,3.4,0,0,0-1.2.6c-2.2,1.2-13,8.9-13.7,3.7-.4-2.3,2.9-4.1,4.4-5.5A12.7,12.7,0,0,0,1401.8,5.6Z" transform="translate(238.6 409.9)" fill="#646e31"/><path d="M1414.7,71.1a2.7,2.7,0,0,0,.8-.7,2.2,2.2,0,0,0,.2-1.4,10.5,10.5,0,0,0-.6-2.4,9.4,9.4,0,0,0-1.2-2.2,9.8,9.8,0,0,0-1.7-1.8,7.7,7.7,0,0,0-2.1-1.4c-2.4-1.2-5.3-1.4-7.5-3s-2.3-2.9-1.2-4a2.7,2.7,0,0,1,1.4-.7l4.1-1.5a2.8,2.8,0,0,1,0-1.8,2.9,2.9,0,0,1,.9-1.6,16.1,16.1,0,0,1,3-2.1c.3,1.2.8,2.6,2,2.6s1.7-1.2,2.1-2.2,1.6-2,2.5-1.4a34.4,34.4,0,0,1,4.1,14l1.6-1a5.7,5.7,0,0,0,1.2-1.5,5.6,5.6,0,0,0,.9-1.7,5.8,5.8,0,0,0,.3-1.9,6.5,6.5,0,0,1,.2-2c.3-.7,1-1.3,1.6-1a2.8,2.8,0,0,1,.9,1L1430,55l.9-.4h1.1l1.1.3.9.5.7.7a4.7,4.7,0,0,1,.5,1,3.6,3.6,0,0,1,.2,1,3.7,3.7,0,0,1-.1,1.1l.7-.2h1.3l.7.3.5.5.4.6.3.6c0,.2.1.5.1.7a5.7,5.7,0,0,1-1.2,2.3,6,6,0,0,1-2.1,1.4l-13.3,7.8a53.4,53.4,0,0,0,9.4,7,17.7,17.7,0,0,1,4.4,3.8,16.1,16.1,0,0,1,2.9,5.1l-1.7.8a6.9,6.9,0,0,1-2,.3l-1.9-.3a3.8,3.8,0,0,1-1.7-.8c1.1,1.6,2.1,3.8,1,5.3l-.8.7-1,.4h-1l-1.1-.3a8.5,8.5,0,0,1-3.3-2.4,8.1,8.1,0,0,1,0,3.8,1.6,1.6,0,0,1-.3.9l-.6.8-.8.5a3.2,3.2,0,0,1-.9.3c-1.8,0-2.9-1.8-3.6-3.4a113.6,113.6,0,0,1-4.4-11.5,5.6,5.6,0,0,0-.4-1.2,3.1,3.1,0,0,0-.8-1.1,2.5,2.5,0,0,0-1-.8,3.5,3.5,0,0,0-1.3-.5c-2.4-.8-15.4-3.2-12.3-7.3,1.5-1.9,5.2-.7,7.1-.5a14.9,14.9,0,0,0,4.2-.3A13.2,13.2,0,0,0,1414.7,71.1Z" transform="translate(238.6 409.9)" fill="#646e31"/><path d="M1363.3,118.3a1.3,1.3,0,1,1,.4,1.8A1.3,1.3,0,0,1,1363.3,118.3Z" transform="translate(238.6 409.9)" fill="#081211"/><path d="M1379.6,139.7a2.6,2.6,0,1,1,.9,3.5A2.6,2.6,0,0,1,1379.6,139.7Z" transform="translate(238.6 409.9)" fill="#081211"/><path d="M1411.2,150.1a5,5,0,0,1,6.9-1.7,5.1,5.1,0,1,1-5.2,8.7A5.1,5.1,0,0,1,1411.2,150.1Z" transform="translate(238.6 409.9)" fill="#081211"/><path d="M1366,64.6a.9.9,0,1,1,1.5.9.9.9,0,0,1-1.2.3A.8.8,0,0,1,1366,64.6Z" transform="translate(238.6 409.9)" fill="#081211"/><path d="M1373.1,47.2a.8.8,0,0,1,1.2-.3.9.9,0,0,1,.3,1.2,1,1,0,0,1-1.2.3A.8.8,0,0,1,1373.1,47.2Z" transform="translate(238.6 409.9)" fill="#081211"/><path d="M1340.2,27.6c.1-.2.4-.3.5-.2a.5.5,0,0,1,.2.6c-.1.2-.4.2-.6.1A.4.4,0,0,1,1340.2,27.6Z" transform="translate(238.6 409.9)" fill="#081211"/><path d="M1268.3,30.7a2.3,2.3,0,0,1,3.1-.8,2.3,2.3,0,0,1,.8,3.2,2.4,2.4,0,0,1-3.2.8A2.3,2.3,0,0,1,1268.3,30.7Z" transform="translate(238.6 409.9)" fill="#081211"/><path d="M1230-.4a3.1,3.1,0,0,1,4.2-1.1,3.1,3.1,0,0,1,1,4.2,3.1,3.1,0,0,1-4.2,1A2.9,2.9,0,0,1,1230-.4Z" transform="translate(238.6 409.9)" fill="#081211"/><path d="M1201.9,5.3a1.6,1.6,0,0,1,2.1-.5,1.6,1.6,0,0,1,.5,2.1,1.6,1.6,0,0,1-2.1.5A1.5,1.5,0,0,1,1201.9,5.3Z" transform="translate(238.6 409.9)" fill="#081211"/><path d="M1192.6,18.1a1.5,1.5,0,0,1,2.1-.6,1.6,1.6,0,0,1,.5,2.1,1.4,1.4,0,0,1-2.1.5A1.4,1.4,0,0,1,1192.6,18.1Z" transform="translate(238.6 409.9)" fill="#081211"/><path d="M1176.4,18.4a3.7,3.7,0,0,1,5.1-1.2,3.6,3.6,0,0,1,1.2,5,3.7,3.7,0,0,1-5.1,1.3A3.7,3.7,0,0,1,1176.4,18.4Z" transform="translate(238.6 409.9)" fill="#081211"/><path d="M1209.2,133.2a2.5,2.5,0,0,1,3.6-.9,2.6,2.6,0,0,1,.9,3.5,2.5,2.5,0,0,1-3.6.9A2.6,2.6,0,0,1,1209.2,133.2Z" transform="translate(238.6 409.9)" fill="#081211"/><path d="M1184.2,112.9a1,1,0,1,1,1.7,1,1,1,0,0,1-1.4.4A1,1,0,0,1,1184.2,112.9Z" transform="translate(238.6 409.9)" fill="#081211"/><path d="M1212.6,165.1a2.3,2.3,0,0,1,3.1-.8,2.4,2.4,0,0,1,.8,3.2,2.3,2.3,0,0,1-3.9-2.4Z" transform="translate(238.6 409.9)" fill="#081211"/><path d="M1233.2,148.1a1,1,0,0,1,1.4-.3,1,1,0,0,1,.4,1.4,1,1,0,0,1-1.4.3A1,1,0,0,1,1233.2,148.1Z" transform="translate(238.6 409.9)" fill="#081211"/><circle cx="1241.1" cy="183.8" r="4" transform="translate(992.7 1750) rotate(-75.6)" fill="#081211"/><path d="M1269,200.9a3.3,3.3,0,0,1,4.6-1.1,3.5,3.5,0,0,1,1.1,4.6,3.3,3.3,0,0,1-5.7-3.5Z" transform="translate(238.6 409.9)" fill="#081211"/><path d="M1301.8,200.5a.9.9,0,0,1,1.3-.3.9.9,0,0,1,.3,1.2,1.1,1.1,0,0,1-1.3.3A1,1,0,0,1,1301.8,200.5Z" transform="translate(238.6 409.9)" fill="#081211"/><path d="M1327.3,197.3a1,1,0,0,1,1.4-.4,1.2,1.2,0,0,1,.4,1.5,1.2,1.2,0,0,1-1.5.3A1,1,0,0,1,1327.3,197.3Z" transform="translate(238.6 409.9)" fill="#081211"/><path d="M1281.6,108.3a1.3,1.3,0,0,1,1.7-.5,1.2,1.2,0,0,1,.4,1.7,1.2,1.2,0,0,1-1.7.4A1.2,1.2,0,0,1,1281.6,108.3Z" transform="translate(238.6 409.9)" fill="#cd1918"/><path d="M1267,93.3a1,1,0,0,1,1.3-.4.9.9,0,0,1,.3,1.3.9.9,0,0,1-1.3.3A.9.9,0,0,1,1267,93.3Z" transform="translate(238.6 409.9)" fill="#cd1918"/><path d="M1291.4,115.6a1.1,1.1,0,0,1,1.5-.3,1,1,0,0,1,.4,1.4,1,1,0,0,1-1.5.4A1.1,1.1,0,0,1,1291.4,115.6Z" transform="translate(238.6 409.9)" fill="#cd1918"/><path d="M1260.8,45.3a.6.6,0,0,1,.8-.2.6.6,0,0,1-.6,1A.8.8,0,0,1,1260.8,45.3Z" transform="translate(238.6 409.9)" fill="#cd1918"/><path d="M1252.5,47a.7.7,0,0,1,.9-.2.6.6,0,0,1,.2.9.7.7,0,0,1-1.1-.7Z" transform="translate(238.6 409.9)" fill="#cd1918"/><path d="M1246.1,59.4a3,3,0,1,1,1.1,4.1A3,3,0,0,1,1246.1,59.4Z" transform="translate(238.6 409.9)" fill="#cd1918"/><path d="M1366,88.5a.6.6,0,0,1,.8-.2.5.5,0,0,1,.2.8.5.5,0,0,1-.8.2A.6.6,0,0,1,1366,88.5Z" transform="translate(238.6 409.9)" fill="#cd1918"/><path d="M1345.3,58.2A3.3,3.3,0,0,1,1350,57a3.5,3.5,0,1,1-4.7,1.2Z" transform="translate(238.6 409.9)" fill="#cd1918"/><path d="M1371.3,63.7a1.1,1.1,0,0,1,1.5-.4,1.2,1.2,0,0,1,.4,1.6,1.1,1.1,0,0,1-1.5.4A1.2,1.2,0,0,1,1371.3,63.7Z" transform="translate(238.6 409.9)" fill="#cd1918"/><path d="M1384.9,39.5a.8.8,0,0,1,1.2-.3.8.8,0,0,1,.3,1.2.9.9,0,0,1-1.2.3A.9.9,0,0,1,1384.9,39.5Z" transform="translate(238.6 409.9)" fill="#cd1918"/><path d="M1405,30.2a1.9,1.9,0,0,1,2.7-.7,2,2,0,0,1,.7,2.8,2.1,2.1,0,0,1-2.8.6A1.9,1.9,0,0,1,1405,30.2Z" transform="translate(238.6 409.9)" fill="#cd1918"/><path d="M1432.9,35a4.3,4.3,0,1,1,1.5,6A4.4,4.4,0,0,1,1432.9,35Z" transform="translate(238.6 409.9)" fill="#cd1918"/><path d="M1437.2,130.9a1,1,0,0,1,1.5-.3,1,1,0,0,1,.4,1.5,1.1,1.1,0,1,1-1.9-1.2Z" transform="translate(238.6 409.9)" fill="#cd1918"/><path d="M1363.6,193.3a1.8,1.8,0,0,1,2.6-.6,1.8,1.8,0,0,1,.6,2.5,1.9,1.9,0,0,1-2.6.7A2,2,0,0,1,1363.6,193.3Z" transform="translate(238.6 409.9)" fill="#cd1918"/><path d="M1319.4,207.8a.9.9,0,0,1,1.2-.3,1,1,0,0,1,.3,1.2.8.8,0,0,1-1.2.3A.8.8,0,0,1,1319.4,207.8Z" transform="translate(238.6 409.9)" fill="#cd1918"/><path d="M1297.5,206.4a.8.8,0,0,1,1.2-.3.9.9,0,0,1,.3,1.2,1,1,0,0,1-1.2.3A.9.9,0,0,1,1297.5,206.4Z" transform="translate(238.6 409.9)" fill="#cd1918"/><path d="M1256.6,192.5a3.6,3.6,0,0,1,5.1-1.3,3.7,3.7,0,1,1-5.1,1.3Z" transform="translate(238.6 409.9)" fill="#cd1918"/><path d="M1222.4,172a2.3,2.3,0,0,1,3.2-.8,2.3,2.3,0,0,1,.8,3.1,2.3,2.3,0,0,1-3.2.8A2.3,2.3,0,0,1,1222.4,172Z" transform="translate(238.6 409.9)" fill="#cd1918"/><path d="M1206.3,150a1.3,1.3,0,0,1,1.8-.4,1.2,1.2,0,0,1,.4,1.7,1.4,1.4,0,0,1-1.8.5A1.3,1.3,0,0,1,1206.3,150Z" transform="translate(238.6 409.9)" fill="#cd1918"/><path d="M1195.2,132.4a1.2,1.2,0,0,1,1.6-.4,1.1,1.1,0,0,1,.3,1.6,1,1,0,0,1-1.5.3A1,1,0,0,1,1195.2,132.4Z" transform="translate(238.6 409.9)" fill="#cd1918"/><path d="M1172.5,92.2a3.7,3.7,0,1,1,6.4,3.9,3.7,3.7,0,0,1-6.4-3.9Z" transform="translate(238.6 409.9)" fill="#cd1918"/></g></g></g></g><g clip-path="url(#fe13d9df-b9ac-4a33-ab8d-7198663f3afc)"><circle cx="1562.8" cy="702.7" r="176.6" fill="#081211"/><path d="M1213.5,225.7a65.6,65.6,0,0,0-4.9,9,55.2,55.2,0,0,0-3.5,9.6,69.4,69.4,0,0,0-2,10.1,88,88,0,0,0-.3,10.3c.3,6.5,1.5,13.4-.7,19.5s-10.1,13-9.1,20.6c.7,4.7,4.5,8.3,6.5,12.7,3.5,7.6,1.2,16.5,2.6,24.7,2.4,13.8,14.6,23.1,23.3,34.1s13.3,22.4,22.2,31.9,22.1,16.5,34.1,22.6a36,36,0,0,0,13,4.5c6,.5,11.6-2.1,17.4-3.2,17.1-3.5,35.1,4.8,52.1.3,24-6.1,35.9-34.5,58.6-44.4,8.7-3.8,18.9-4.7,25.8-11s9.8-19.5,8.7-30.4-4.3-21.6-3.6-32.5,5-21.2,7.4-31.9,2.5-22.9-4.4-31.4-19.2-12.3-21.2-22.6c-1.1-5.1.9-10.3.1-15.3-2.1-11.3-16.1-15.4-22.9-24.7-2.9-4-4.2-8.9-7.4-12.7-9.2-10.8-26.3-6.6-40.3-8.7-10.9-1.7-20.7-7.6-31-11.5s-22.9-5.1-31.9,1.1c-3.7,2.6-6.3,6.4-10.4,8.6a35.3,35.3,0,0,1-13.2,3c-12,.9-44.7,4.6-48.5,18.3-1.8,6.6,1.8,11.2-2,19S1218.1,218.7,1213.5,225.7Z" transform="translate(238.6 409.9)" fill="#b7b7b7"/><path d="M1245.7,179.2c-12.3,11.1-12,30.8-21.4,44.5-5.6,8.4-14.9,14.7-17.4,24.5s5.4,23.8,4.9,36c-.3,7-3.3,13.6-5.3,20.3a71,71,0,0,0-1.7,8,53.2,53.2,0,0,0-.6,8.1,73.2,73.2,0,0,0,.4,8.1,56.2,56.2,0,0,0,1.5,8,68.6,68.6,0,0,0,2.4,7.7,61.3,61.3,0,0,0,3.5,7.3,62,62,0,0,0,4.4,6.9,61,61,0,0,0,5.2,6.2c5.8,6,12.8,10.8,17.7,17.6s5.8,10.3,9,15.4c12.7,18.9,37.9,24,60.3,27.5s44.8,6.2,63.5-4.8c11-6.5,19-17.2,30.4-23.3,7.3-3.8,15.7-5.5,23.2-9,1.4-.7,2.7-1.5,4-2.3l3.8-2.5,3.5-2.9,3.2-3.2a32.7,32.7,0,0,0,3-3.5c1-1.2,1.8-2.4,2.7-3.7s1.6-2.6,2.3-3.9,1.4-2.7,2-4.1l1.6-4.3,1.2-4.4c.3-1.5.6-3,.8-4.5a34.2,34.2,0,0,0,.4-4.5c.1-1.6.1-3.1.1-4.6s-.2-3-.4-4.6a35.4,35.4,0,0,0-.8-4.5c-.3-1.4-.7-2.9-1.1-4.4-2.6-7.6-7.2-15.2-6.1-23.3s6.4-12.8,9.6-19.4a32.9,32.9,0,0,0,1.6-4.4,34.3,34.3,0,0,0,1.1-4.6c.2-1.5.3-3.1.4-4.6a35.9,35.9,0,0,0-.3-4.7,34,34,0,0,0-.8-4.6,39.6,39.6,0,0,0-1.5-4.5,41.1,41.1,0,0,0-2.1-4.2,32.8,32.8,0,0,0-2.7-3.8c-5.6-6.9-13.9-11.5-18.6-19s-5.1-16.8-8-25.2c-6.2-17.7-23.5-29.4-41.6-34-12.6-3.2-26-3.2-38.7-7.2a180.1,180.1,0,0,0-17.7-5.3c-17.2-3.5-29.7,4.9-44.7,11.4C1270.3,174,1256.6,169.2,1245.7,179.2Z" transform="translate(238.6 409.9)" fill="#e0dfe0"/><path d="M1355.2,417.2a.9.9,0,1,1,.9.9A.9.9,0,0,1,1355.2,417.2Z" transform="translate(238.6 409.9)" fill="#b7b7b7"/><path d="M1362.4,417.3a.9.9,0,1,1,.9.9A.9.9,0,0,1,1362.4,417.3Z" transform="translate(238.6 409.9)" fill="#b7b7b7"/><path d="M1366.5,417a1.5,1.5,0,0,1,1.5-1.5,1.5,1.5,0,0,1,1.5,1.5,1.4,1.4,0,0,1-1.5,1.5A1.5,1.5,0,0,1,1366.5,417Z" transform="translate(238.6 409.9)" fill="#b7b7b7"/><path d="M1346.2,423.4a3.8,3.8,0,1,1,3.8,3.8A3.8,3.8,0,0,1,1346.2,423.4Z" transform="translate(238.6 409.9)" fill="#b7b7b7"/><path d="M1377.2,408.8a2.5,2.5,0,1,1,2.4,2.4A2.5,2.5,0,0,1,1377.2,408.8Z" transform="translate(238.6 409.9)" fill="#b7b7b7"/><path d="M1380.7,405.9a1.4,1.4,0,0,1,1.4-1.4,1.3,1.3,0,0,1,1.3,1.4,1.3,1.3,0,0,1-1.3,1.3A1.3,1.3,0,0,1,1380.7,405.9Z" transform="translate(238.6 409.9)" fill="#b7b7b7"/><path d="M1385.9,402.8a2.3,2.3,0,1,1,4.5,0,2.3,2.3,0,1,1-4.5,0Z" transform="translate(238.6 409.9)" fill="#b7b7b7"/><path d="M1388.8,397.6a2.9,2.9,0,0,1,3-3,3,3,0,0,1,3.1,3,3.1,3.1,0,0,1-3.1,3.1A3,3,0,0,1,1388.8,397.6Z" transform="translate(238.6 409.9)" fill="#b7b7b7"/><path d="M1396.1,392.7a2.9,2.9,0,1,1,2.9,2.9A2.9,2.9,0,0,1,1396.1,392.7Z" transform="translate(238.6 409.9)" fill="#b7b7b7"/><path d="M1404.2,388.3a.7.7,0,0,1,.8-.7.7.7,0,0,1,.7.7.8.8,0,0,1-.7.8A.8.8,0,0,1,1404.2,388.3Z" transform="translate(238.6 409.9)" fill="#b7b7b7"/><path d="M1408.9,387.9a1,1,0,0,1,.9-1,1.1,1.1,0,0,1,1,1,1,1,0,0,1-1,.9A.9.9,0,0,1,1408.9,387.9Z" transform="translate(238.6 409.9)" fill="#b7b7b7"/><path d="M1413.5,387.7a1.7,1.7,0,1,1,1.7,1.7A1.8,1.8,0,0,1,1413.5,387.7Z" transform="translate(238.6 409.9)" fill="#b7b7b7"/><path d="M1427.2,375.5a.8.8,0,1,1,.8.8A.9.9,0,0,1,1427.2,375.5Z" transform="translate(238.6 409.9)" fill="#b7b7b7"/><path d="M1335.3,423.6a1.2,1.2,0,0,1,1.3-1.2,1.2,1.2,0,1,1,0,2.4A1.2,1.2,0,0,1,1335.3,423.6Z" transform="translate(238.6 409.9)" fill="#b7b7b7"/><circle cx="1325.7" cy="421.8" r="2.6" transform="matrix(0.07, -1, 1, 0.07, 1049.64, 2124.14)" fill="#b7b7b7"/><path d="M1315,419.9a1.4,1.4,0,1,1,2.8,0,1.4,1.4,0,1,1-2.8,0Z" transform="translate(238.6 409.9)" fill="#b7b7b7"/><path d="M1306.2,417.3a1.8,1.8,0,0,1,3.6,0,1.8,1.8,0,1,1-3.6,0Z" transform="translate(238.6 409.9)" fill="#b7b7b7"/><path d="M1299.8,418.9a1,1,0,0,1,1-1.1,1.1,1.1,0,0,1,1.1,1.1,1.1,1.1,0,0,1-1.1,1A1,1,0,0,1,1299.8,418.9Z" transform="translate(238.6 409.9)" fill="#b7b7b7"/><path d="M1295,415.8a.6.6,0,0,1,.6-.6.6.6,0,1,1,0,1.2A.6.6,0,0,1,1295,415.8Z" transform="translate(238.6 409.9)" fill="#b7b7b7"/><path d="M1286.6,413.5a2.9,2.9,0,1,1,2.9,2.9A2.9,2.9,0,0,1,1286.6,413.5Z" transform="translate(238.6 409.9)" fill="#b7b7b7"/><path d="M1280.5,414.6a.8.8,0,1,1,1.6,0,.8.8,0,0,1-1.6,0Z" transform="translate(238.6 409.9)" fill="#b7b7b7"/><circle cx="1273.2" cy="407.9" r="4.6" transform="translate(647.7 1838) rotate(-67.5)" fill="#b7b7b7"/><circle cx="1519.7" cy="817" r="0.3" fill="#b7b7b7"/><path d="M1261.6,398.2a2,2,0,0,1,4,0,2,2,0,1,1-4,0Z" transform="translate(238.6 409.9)" fill="#b7b7b7"/><circle cx="1259.3" cy="401.6" r="2.4" transform="translate(1008 2039.2) rotate(-85.9)" fill="#b7b7b7"/><circle cx="1502.5" cy="816.5" r="0.5" fill="#b7b7b7"/><path d="M1266.5,403.9a.9.9,0,1,1,.9.9A.9.9,0,0,1,1266.5,403.9Z" transform="translate(238.6 409.9)" fill="#b7b7b7"/><path d="M1255.6,390.5a3.6,3.6,0,1,1,7.1,0,3.6,3.6,0,0,1-7.1,0Z" transform="translate(238.6 409.9)" fill="#b7b7b7"/><circle cx="1494.2" cy="800.4" r="1.5" fill="#b7b7b7"/><path d="M1248.3,387.6a.8.8,0,0,1,.8-.8.7.7,0,0,1,.7.8.7.7,0,0,1-.7.7A.8.8,0,0,1,1248.3,387.6Z" transform="translate(238.6 409.9)" fill="#b7b7b7"/><path d="M1246.8,383.1a1.2,1.2,0,1,1,2.4,0,1.2,1.2,0,0,1-2.4,0Z" transform="translate(238.6 409.9)" fill="#b7b7b7"/><circle cx="1491.3" cy="791.2" r="2.7" fill="#b7b7b7"/><path d="M1244,376.4a1.9,1.9,0,0,1,1.9-1.8,1.8,1.8,0,0,1,0,3.6A1.9,1.9,0,0,1,1244,376.4Z" transform="translate(238.6 409.9)" fill="#b7b7b7"/><path d="M1242.2,374.7a1.3,1.3,0,0,1,1.2-1.2,1.3,1.3,0,0,1,1.3,1.2,1.3,1.3,0,0,1-1.3,1.3A1.3,1.3,0,0,1,1242.2,374.7Z" transform="translate(238.6 409.9)" fill="#b7b7b7"/><circle cx="1473.8" cy="779.7" r="2" fill="#b7b7b7"/><path d="M1238.2,375.8a.9.9,0,0,1,1-.9.9.9,0,1,1,0,1.8A.9.9,0,0,1,1238.2,375.8Z" transform="translate(238.6 409.9)" fill="#b7b7b7"/><path d="M1229.5,368.3a1.2,1.2,0,0,1,1.3-1.2,1.2,1.2,0,1,1,0,2.4A1.2,1.2,0,0,1,1229.5,368.3Z" transform="translate(238.6 409.9)" fill="#b7b7b7"/><path d="M1226,367.2a1.1,1.1,0,0,1,2.2,0,1.1,1.1,0,0,1-2.2,0Z" transform="translate(238.6 409.9)" fill="#b7b7b7"/><path d="M1220.2,362.5a1.1,1.1,0,1,1,1.1,1.1A1.1,1.1,0,0,1,1220.2,362.5Z" transform="translate(238.6 409.9)" fill="#b7b7b7"/><path d="M1215,356.3a1.6,1.6,0,0,1,1.6-1.6,1.6,1.6,0,0,1,1.5,1.6,1.5,1.5,0,0,1-1.5,1.5A1.6,1.6,0,0,1,1215,356.3Z" transform="translate(238.6 409.9)" fill="#b7b7b7"/><circle cx="1457.9" cy="766.3" r="1.1" fill="#b7b7b7"/><path d="M1220.7,358.7a1.1,1.1,0,0,1,1-1.1,1.1,1.1,0,0,1,0,2.2A1.1,1.1,0,0,1,1220.7,358.7Z" transform="translate(238.6 409.9)" fill="#b7b7b7"/><path d="M1217.6,360.8a1.4,1.4,0,0,1,2.8,0,1.4,1.4,0,1,1-2.8,0Z" transform="translate(238.6 409.9)" fill="#b7b7b7"/><path d="M1238.1,384.2a1.8,1.8,0,1,1,1.8,1.8A1.8,1.8,0,0,1,1238.1,384.2Z" transform="translate(238.6 409.9)" fill="#b7b7b7"/><path d="M1242.5,394.4a3,3,0,0,1,3.1-3,2.9,2.9,0,0,1,3,3,3,3,0,0,1-3,3.1A3.1,3.1,0,0,1,1242.5,394.4Z" transform="translate(238.6 409.9)" fill="#b7b7b7"/><path d="M1250.1,404.3a1.7,1.7,0,0,1,1.7-1.6,1.6,1.6,0,0,1,1.7,1.6,1.6,1.6,0,0,1-1.7,1.7A1.7,1.7,0,0,1,1250.1,404.3Z" transform="translate(238.6 409.9)" fill="#b7b7b7"/><path d="M1437.6,378.7a.9.9,0,0,1,.9-.9.9.9,0,1,1,0,1.8A.9.9,0,0,1,1437.6,378.7Z" transform="translate(238.6 409.9)" fill="#b7b7b7"/><path d="M1428.8,380.5a1.3,1.3,0,0,1,1.3-1.3,1.3,1.3,0,0,1,1.4,1.3,1.4,1.4,0,0,1-1.4,1.4A1.3,1.3,0,0,1,1428.8,380.5Z" transform="translate(238.6 409.9)" fill="#b7b7b7"/><path d="M1420.5,381.8a1.3,1.3,0,0,1,1.2-1.3,1.3,1.3,0,0,1,1.3,1.3,1.3,1.3,0,0,1-1.3,1.2A1.3,1.3,0,0,1,1420.5,381.8Z" transform="translate(238.6 409.9)" fill="#b7b7b7"/><path d="M1434.1,366.3a2.6,2.6,0,1,1,5.2,0,2.6,2.6,0,1,1-5.2,0Z" transform="translate(238.6 409.9)" fill="#b7b7b7"/><path d="M1309.5,157.2a3.9,3.9,0,1,1,3.9,3.8A3.8,3.8,0,0,1,1309.5,157.2Z" transform="translate(238.6 409.9)" fill="#b7b7b7"/><path d="M1319,159.8a2.2,2.2,0,1,1,4.3,0,2.1,2.1,0,0,1-2.2,2.1A2.1,2.1,0,0,1,1319,159.8Z" transform="translate(238.6 409.9)" fill="#b7b7b7"/><path d="M1326.8,162.1a1.9,1.9,0,0,1,1.8-1.9,2,2,0,0,1,1.9,1.9,1.9,1.9,0,0,1-1.9,1.8A1.8,1.8,0,0,1,1326.8,162.1Z" transform="translate(238.6 409.9)" fill="#b7b7b7"/><circle cx="1577.7" cy="576.9" r="3.4" fill="#b7b7b7"/><path d="M1302.1,165.1a.7.7,0,0,1,.7-.7.8.8,0,0,1,.8.7.9.9,0,0,1-.8.8A.8.8,0,0,1,1302.1,165.1Z" transform="translate(238.6 409.9)" fill="#b7b7b7"/><path d="M1317.3,168.6a.8.8,0,0,1,.8-.7.7.7,0,0,1,.7.7.8.8,0,0,1-.7.8A.9.9,0,0,1,1317.3,168.6Z" transform="translate(238.6 409.9)" fill="#b7b7b7"/><path d="M1328.5,170.3a1.5,1.5,0,0,1,1.5-1.5,1.5,1.5,0,0,1,0,3A1.5,1.5,0,0,1,1328.5,170.3Z" transform="translate(238.6 409.9)" fill="#b7b7b7"/><path d="M1290.1,174a2.9,2.9,0,1,1,2.9,2.9A2.9,2.9,0,0,1,1290.1,174Z" transform="translate(238.6 409.9)" fill="#b7b7b7"/><path d="M1299.5,172.6a1.8,1.8,0,1,1,1.8,1.8A1.8,1.8,0,0,1,1299.5,172.6Z" transform="translate(238.6 409.9)" fill="#b7b7b7"/><path d="M1300.5,160.7a2,2,0,1,1,2,2A2,2,0,0,1,1300.5,160.7Z" transform="translate(238.6 409.9)" fill="#b7b7b7"/><path d="M1272,172.7a2.5,2.5,0,0,1,2.6-2.5,2.6,2.6,0,1,1,0,5.1A2.5,2.5,0,0,1,1272,172.7Z" transform="translate(238.6 409.9)" fill="#b7b7b7"/><circle cx="1497.9" cy="583.7" r="0.8" fill="#b7b7b7"/><path d="M1263,174.7a.6.6,0,0,1,.6-.6.6.6,0,0,1,.6.6.6.6,0,0,1-.6.6A.5.5,0,0,1,1263,174.7Z" transform="translate(238.6 409.9)" fill="#b7b7b7"/><path d="M1267.4,180.7a1.2,1.2,0,1,1,1.2,1.2A1.2,1.2,0,0,1,1267.4,180.7Z" transform="translate(238.6 409.9)" fill="#b7b7b7"/><path d="M1253.7,181.6a1.7,1.7,0,0,1,1.6-1.7,1.7,1.7,0,1,1,0,3.4A1.7,1.7,0,0,1,1253.7,181.6Z" transform="translate(238.6 409.9)" fill="#b7b7b7"/><circle cx="1485.1" cy="586.5" r="1.7" fill="#b7b7b7"/><circle cx="1482.3" cy="595.9" r="2.6" fill="#b7b7b7"/><path d="M1250.9,191.4a1.9,1.9,0,1,1,3.7,0,1.8,1.8,0,0,1-1.9,1.8A1.8,1.8,0,0,1,1250.9,191.4Z" transform="translate(238.6 409.9)" fill="#b7b7b7"/><path d="M1261.7,191.8a1.3,1.3,0,0,1,1.3-1.2,1.3,1.3,0,0,1,1.2,1.2,1.3,1.3,0,0,1-1.2,1.3A1.3,1.3,0,0,1,1261.7,191.8Z" transform="translate(238.6 409.9)" fill="#b7b7b7"/><path d="M1236.9,193.5a1.8,1.8,0,1,1,1.8,1.8A1.8,1.8,0,0,1,1236.9,193.5Z" transform="translate(238.6 409.9)" fill="#b7b7b7"/><path d="M1243.7,199.8a2,2,0,0,1,1.9-1.9,1.9,1.9,0,0,1,1.8,1.9,1.8,1.8,0,0,1-1.8,1.8A1.9,1.9,0,0,1,1243.7,199.8Z" transform="translate(238.6 409.9)" fill="#b7b7b7"/><path d="M1252.7,200.7c0-.4.3-.6.7-.6a.6.6,0,0,1,.6.6.6.6,0,0,1-.6.6A.7.7,0,0,1,1252.7,200.7Z" transform="translate(238.6 409.9)" fill="#b7b7b7"/><path d="M1233.4,200.1a.9.9,0,1,1,.9.9A.9.9,0,0,1,1233.4,200.1Z" transform="translate(238.6 409.9)" fill="#b7b7b7"/><path d="M1232.6,203.1a.6.6,0,0,1,1.2,0,.6.6,0,0,1-1.2,0Z" transform="translate(238.6 409.9)" fill="#b7b7b7"/><path d="M1236.7,209.1a2.9,2.9,0,1,1,2.9,2.9A2.9,2.9,0,0,1,1236.7,209.1Z" transform="translate(238.6 409.9)" fill="#b7b7b7"/><path d="M1242.5,210.6a1.5,1.5,0,0,1,1.5-1.5,1.6,1.6,0,0,1,1.6,1.5,1.5,1.5,0,0,1-1.6,1.5A1.5,1.5,0,0,1,1242.5,210.6Z" transform="translate(238.6 409.9)" fill="#b7b7b7"/><path d="M1261.9,203.7a1.5,1.5,0,0,1,1.5-1.5,1.6,1.6,0,0,1,1.6,1.5,1.6,1.6,0,0,1-1.6,1.6A1.6,1.6,0,0,1,1261.9,203.7Z" transform="translate(238.6 409.9)" fill="#b7b7b7"/><circle cx="1510" cy="607.4" r="1.4" fill="#b7b7b7"/><circle cx="1518.7" cy="599" r="1.7" fill="#b7b7b7"/><circle cx="1470.1" cy="623.7" r="1.4" fill="#b7b7b7"/><path d="M1229.8,221.5a2,2,0,1,1,2,1.9A2,2,0,0,1,1229.8,221.5Z" transform="translate(238.6 409.9)" fill="#b7b7b7"/><circle cx="1467.5" cy="638.4" r="0.5" fill="#b7b7b7"/><circle cx="1459.1" cy="644.9" r="1.4" fill="#b7b7b7"/><circle cx="1459.7" cy="648.9" r="1.4" fill="#b7b7b7"/><path d="M1226.8,234.1a1,1,0,0,1,1.1-1,1,1,0,0,1,1,1,1.1,1.1,0,0,1-1,1.1A1.1,1.1,0,0,1,1226.8,234.1Z" transform="translate(238.6 409.9)" fill="#b7b7b7"/><path d="M1213.7,242.5a1.2,1.2,0,1,1,1.2,1.2A1.2,1.2,0,0,1,1213.7,242.5Z" transform="translate(238.6 409.9)" fill="#b7b7b7"/><path d="M1209.7,248a1.1,1.1,0,0,1,1.1-1.1,1.1,1.1,0,0,1,0,2.2A1.1,1.1,0,0,1,1209.7,248Z" transform="translate(238.6 409.9)" fill="#b7b7b7"/><path d="M1208.2,251.2a.3.3,0,0,1,.3-.3l.3.3a.3.3,0,0,1-.3.3A.3.3,0,0,1,1208.2,251.2Z" transform="translate(238.6 409.9)" fill="#b7b7b7"/><circle cx="1594.8" cy="579.6" r="1.8" fill="#b7b7b7"/><path d="M1369.7,174.6a1.7,1.7,0,0,1,1.7-1.7,1.7,1.7,0,0,1,0,3.4A1.7,1.7,0,0,1,1369.7,174.6Z" transform="translate(238.6 409.9)" fill="#b7b7b7"/><path d="M1374.7,175.5a2.3,2.3,0,0,1,2.3-2.3,2.3,2.3,0,0,1,0,4.6A2.3,2.3,0,0,1,1374.7,175.5Z" transform="translate(238.6 409.9)" fill="#b7b7b7"/><path d="M1366.6,169.5a.6.6,0,0,1,.6-.6.7.7,0,0,1,.7.6.7.7,0,0,1-.7.7A.7.7,0,0,1,1366.6,169.5Z" transform="translate(238.6 409.9)" fill="#b7b7b7"/><path d="M1363.9,171.4a.5.5,0,0,1,.4-.5.5.5,0,0,1,.5.5.5.5,0,0,1-.5.4A.4.4,0,0,1,1363.9,171.4Z" transform="translate(238.6 409.9)" fill="#b7b7b7"/><path d="M1360.7,173.5a.4.4,0,0,1,.4-.4.5.5,0,0,1,.5.4.5.5,0,0,1-.5.5A.5.5,0,0,1,1360.7,173.5Z" transform="translate(238.6 409.9)" fill="#b7b7b7"/><path d="M1351.1,171.7a.5.5,0,0,1,.4-.5.5.5,0,0,1,.5.5.5.5,0,0,1-.5.4A.4.4,0,0,1,1351.1,171.7Z" transform="translate(238.6 409.9)" fill="#b7b7b7"/><path d="M1348.6,175.8a1.1,1.1,0,1,1,1.1,1.1A1.1,1.1,0,0,1,1348.6,175.8Z" transform="translate(238.6 409.9)" fill="#b7b7b7"/><path d="M1372.1,179.5a.5.5,0,0,1,.5-.5.5.5,0,0,1,.4.5.4.4,0,0,1-.4.4A.5.5,0,0,1,1372.1,179.5Z" transform="translate(238.6 409.9)" fill="#b7b7b7"/><path d="M1382.7,179.8a.9.9,0,1,1,.9.9A.9.9,0,0,1,1382.7,179.8Z" transform="translate(238.6 409.9)" fill="#b7b7b7"/><path d="M1386,177a1.7,1.7,0,0,1,3.4,0,1.7,1.7,0,0,1-3.4,0Z" transform="translate(238.6 409.9)" fill="#b7b7b7"/><circle cx="1640.3" cy="591.8" r="2.3" fill="#b7b7b7"/><path d="M1394.7,181.3a.6.6,0,0,1,.6-.6.6.6,0,0,1,0,1.2A.6.6,0,0,1,1394.7,181.3Z" transform="translate(238.6 409.9)" fill="#b7b7b7"/><circle cx="1636.7" cy="597.6" r="0.3" fill="#b7b7b7"/><path d="M1408.3,190a3.5,3.5,0,0,1,3.5-3.5,3.5,3.5,0,0,1,0,7A3.5,3.5,0,0,1,1408.3,190Z" transform="translate(238.6 409.9)" fill="#b7b7b7"/><circle cx="1657" cy="606.8" r="1.5" fill="#b7b7b7"/><path d="M1393.8,175.3a2.6,2.6,0,1,1,5.2,0,2.6,2.6,0,1,1-5.2,0Z" transform="translate(238.6 409.9)" fill="#b7b7b7"/><circle cx="1327.7" cy="291.8" r="78" transform="matrix(0.05, -1, 1, 0.05, 1214.6, 2014.85)" fill="#e2a803"/><path d="M1396.9,291.7a78.9,78.9,0,0,1-.5,8.4c-.3-2.1-.6-4.1-1.1-6.2a44.4,44.4,0,0,0-1.6-6,58.9,58.9,0,0,0-2.1-5.9,57.7,57.7,0,0,0-2.7-5.6,48,48,0,0,0-3.2-5.4,46.7,46.7,0,0,0-3.6-5.1c-1.3-1.6-2.7-3.2-4.1-4.7a62.5,62.5,0,0,0-4.5-4.4c-1.6-1.3-3.2-2.7-4.9-3.9a58,58,0,0,0-5.2-3.4,58.6,58.6,0,0,0-5.5-3l-5.7-2.5a77.4,77.4,0,0,0-12.1-3.3c-2-.4-4.1-.7-6.1-.9l-6.3-.2c-2.1,0-4.2.1-6.2.3a61.7,61.7,0,0,0-6.2.8l-6.1,1.4c-2,.6-4,1.2-6,2a47,47,0,0,0-5.7,2.5c-1.9.9-3.7,1.9-5.5,2.9s-3.5,2.3-5.2,3.5-3.3,2.6-4.8,3.9a62.5,62.5,0,0,0-4.5,4.4,59.9,59.9,0,0,0-4.1,4.7q-2,2.5-3.6,5.1c-1.2,1.8-2.2,3.6-3.2,5.4a49.8,49.8,0,0,0-2.7,5.7,57.1,57.1,0,0,0-2.1,5.8,60.6,60.6,0,0,0-1.6,6.1c-.4,2-.8,4.1-1,6.1a59.2,59.2,0,0,1-.5-8.4c-.1-1.1-.1-2.3-.1-3.5s.1-2.3.1-3.5l.3-3.4c.1-1.2.3-2.4.4-3.5s.4-2.3.7-3.5.5-2.2.8-3.4l.9-3.3,1.2-3.3c.4-1.1.8-2.2,1.3-3.3s.9-2.1,1.4-3.1a30.7,30.7,0,0,1,1.7-3.1,21.4,21.4,0,0,1,1.7-3l2-3,2-2.8,2.2-2.7,2.4-2.6,2.5-2.4a29.6,29.6,0,0,1,2.6-2.4,19.9,19.9,0,0,1,2.7-2.2l2.8-2.1,2.9-1.9,3-1.8,3.1-1.6,3.2-1.4,3.2-1.3,3.3-1.2,3.4-.9,3.4-.8a21.4,21.4,0,0,1,3.5-.6l3.4-.5,3.5-.3h7l3.5.3,3.4.4,3.5.6,3.4.8,3.4,1,3.3,1.1,3.2,1.3a31.3,31.3,0,0,1,3.2,1.5l3.1,1.6,3,1.7,2.9,1.9,2.9,2.1,2.7,2.2,2.6,2.3,2.5,2.5,2.3,2.6,2.2,2.7,2.1,2.8,1.9,2.9a23.8,23.8,0,0,1,1.8,3l1.7,3.1c.5,1.1,1,2.1,1.4,3.2s.9,2.1,1.3,3.2l1.2,3.3c.3,1.2.7,2.3,1,3.4s.5,2.3.8,3.4l.6,3.4c.2,1.2.3,2.3.4,3.5a20.7,20.7,0,0,1,.3,3.5c.1,1.2.1,2.3.1,3.5Z" transform="translate(238.6 409.9)" fill="#f9da31"/><circle cx="1542.6" cy="759.7" r="2.9" fill="#f9da31"/><path d="M1314.1,347.9a1.6,1.6,0,0,1,1.5-1.6,1.6,1.6,0,0,1,1.6,1.6,1.6,1.6,0,0,1-1.6,1.5A1.5,1.5,0,0,1,1314.1,347.9Z" transform="translate(238.6 409.9)" fill="#f9da31"/><path d="M1327.9,354.7a3.2,3.2,0,0,1,3.2-3.2,3.3,3.3,0,0,1,3.2,3.2,3.2,3.2,0,0,1-3.2,3.2A3.2,3.2,0,0,1,1327.9,354.7Z" transform="translate(238.6 409.9)" fill="#f9da31"/><circle cx="1590.6" cy="741.7" r="4.1" fill="#f9da31"/><path d="M1360.7,327.1a1.2,1.2,0,1,1,1.2,1.2A1.2,1.2,0,0,1,1360.7,327.1Z" transform="translate(238.6 409.9)" fill="#f9da31"/><path d="M1263,306.2a1.2,1.2,0,1,1,1.2,1.2A1.2,1.2,0,0,1,1263,306.2Z" transform="translate(238.6 409.9)" fill="#f9da31"/><circle cx="1267.6" cy="313.7" r="2.3" transform="translate(993.5 1924.5) rotate(-80.8)" fill="#f9da31"/><path d="M1272.4,319.8a1.6,1.6,0,0,1,1.6-1.6,1.6,1.6,0,0,1,1.5,1.6,1.5,1.5,0,0,1-1.5,1.5A1.6,1.6,0,0,1,1272.4,319.8Z" transform="translate(238.6 409.9)" fill="#f9da31"/><path d="M1266.3,320.4a.5.5,0,0,1,.5-.5.5.5,0,0,1,.4.5.4.4,0,0,1-.4.4A.5.5,0,0,1,1266.3,320.4Z" transform="translate(238.6 409.9)" fill="#f9da31"/><path d="M1274.7,330.6a4,4,0,1,1,4,4A4,4,0,0,1,1274.7,330.6Z" transform="translate(238.6 409.9)" fill="#f9da31"/><path d="M1269.1,325.3a.6.6,0,0,1,1.2,0,.6.6,0,1,1-1.2,0Z" transform="translate(238.6 409.9)" fill="#f9da31"/><path d="M1278.2,344.7a6.8,6.8,0,1,1,6.8,6.7A6.7,6.7,0,0,1,1278.2,344.7Z" transform="translate(238.6 409.9)" fill="#f9da31"/><path d="M1298.7,346.5a1.2,1.2,0,1,1,1.2,1.2A1.2,1.2,0,0,1,1298.7,346.5Z" transform="translate(238.6 409.9)" fill="#f9da31"/><circle cx="1298.1" cy="352" r="2.3" transform="translate(981.3 1986.8) rotate(-80.8)" fill="#f9da31"/><path d="M1309.7,359.5a2.1,2.1,0,0,1,2.1-2.2,2.2,2.2,0,1,1,0,4.3A2.1,2.1,0,0,1,1309.7,359.5Z" transform="translate(238.6 409.9)" fill="#f9da31"/><path d="M1321.9,362.4a4.1,4.1,0,1,1,4.1,4.1A4.1,4.1,0,0,1,1321.9,362.4Z" transform="translate(238.6 409.9)" fill="#f9da31"/><circle cx="1584.8" cy="772" r="2.3" fill="#f9da31"/><path d="M1355.2,358.7a1.5,1.5,0,0,1,1.5-1.5,1.5,1.5,0,0,1,0,3A1.5,1.5,0,0,1,1355.2,358.7Z" transform="translate(238.6 409.9)" fill="#f9da31"/><path d="M1362.5,350.5a.5.5,0,0,1,.5-.5.5.5,0,0,1,.4.5.4.4,0,0,1-.4.4A.5.5,0,0,1,1362.5,350.5Z" transform="translate(238.6 409.9)" fill="#f9da31"/><path d="M1365.6,343.9a3.2,3.2,0,0,1,3.2-3.2,3.2,3.2,0,1,1,0,6.4A3.2,3.2,0,0,1,1365.6,343.9Z" transform="translate(238.6 409.9)" fill="#f9da31"/><path d="M1377.5,335.6a3,3,0,0,1,3-3,3.1,3.1,0,1,1,0,6.1A3,3,0,0,1,1377.5,335.6Z" transform="translate(238.6 409.9)" fill="#f9da31"/><path d="M1385,325.4a1.4,1.4,0,0,1,1.3-1.4,1.4,1.4,0,0,1,1.4,1.4,1.4,1.4,0,0,1-1.4,1.4A1.3,1.3,0,0,1,1385,325.4Z" transform="translate(238.6 409.9)" fill="#f9da31"/><path d="M1390,321.4a3.2,3.2,0,1,1,3.2,3.3A3.2,3.2,0,0,1,1390,321.4Z" transform="translate(238.6 409.9)" fill="#f9da31"/><path d="M1391.2,311.8a4.8,4.8,0,0,1,9.5,0,4.8,4.8,0,1,1-9.5,0Z" transform="translate(238.6 409.9)" fill="#f9da31"/></g><g clip-path="url(#ed14cf5e-44f8-4d87-9b82-e344b76b1891)"><path d="M1189.7,623.8a183.9,183.9,0,0,0,16.9,17.3c.6,18.1,9.2,34.4,24.4,42.7s34.5,6.7,50.5-3.2a177.5,177.5,0,0,0,24,4.3c-23.7,24.2-57.7,32.3-84.6,17.6S1182.9,656,1189.7,623.8Z" transform="translate(238.6 409.9)" fill="#081211"/><circle cx="1562.7" cy="919.1" r="176.6" fill="#081211"/><path d="M1348.5,334.3a173.4,173.4,0,0,1,23.8,5c15.5-9.3,33.9-10.8,49.1-2.5s24.2,25.6,24.3,44.3a186.1,186.1,0,0,1,16.5,17.9c7.7-32.9-3.8-66-30.7-80.8S1372,311.2,1348.5,334.3Z" transform="translate(238.6 409.9)" fill="#081211"/><circle cx="1562.8" cy="919.1" r="153.9" fill="#ff8b3b"/><path d="M1194.3,510.2c-.8,12.4,4,24.5,10.1,35.3s13.9,20.7,19.6,31.7c4.4,8.5,9.2,18.8,18.6,20.1l6.2-10.8a6.3,6.3,0,0,0,1.2-3.2,7.1,7.1,0,0,0-1.9-4.2,110.2,110.2,0,0,1-19.4-78.9c.7-5.4,1.9-10.8,1.4-16.2-1-11.4-10.2-18.4-19.5-11.5S1194.9,499.6,1194.3,510.2Z" transform="translate(238.6 409.9)" fill="#e67d36"/><path d="M1401.1,611.4c2.8-3.4,4.4-7.7,7-11.4,4.8-6.9,12.3-11.2,18.8-16.5a77.7,77.7,0,0,0,28.5-53.8c.2-2.8.2-6-1.9-7.8s-8.4-.8-11.4,2.3c-5.6,5.6-8.4,13.4-12.8,19.9-8.7,12.6-22.9,19.7-34.9,29a231.9,231.9,0,0,0-20.7,18.9c-6.3,6.3-25.7,24.3-10.6,29.6C1374.1,625.4,1393.7,620.4,1401.1,611.4Z" transform="translate(238.6 409.9)" fill="#e67d36"/><path d="M1450,484.9c-2.3,6.2-5,12.9-10.8,16.2-4.3,2.5-9.5,2.6-14.4,2.6s-11.7,0-17.1-1.9a48.3,48.3,0,0,1-7.9-3.9c-19.8-11.4-40.2-22.3-62.1-28.9-4.6-1.4-9.5-2.6-14.1-1.3s-9.8,5.9-15.3,5.7-10.1-5.6-10.6-11.1a19.8,19.8,0,0,1,6.6-15c4.9-5,11.8-8.5,14.8-14.9a9.6,9.6,0,0,0,1-5,25.4,25.4,0,0,0-1.3-4.5c-2.2-8.2,4.6-16.1,11.4-21.3,10.9-8.5,25.5-15.5,38.3-10.3s18.3,19.3,28.8,27.8c4.2,2.9,8.5,5.6,12.9,8.2a59.3,59.3,0,0,1,22.5,24.6c6.4,13.6,19.7,8.7,19.5,23.7Z" transform="translate(238.6 409.9)" fill="#e67d36"/><path d="M1248.8,409.8c-6.1,4.2-11.3,10.1-13,17.3s-.1,12.9,1.2,19.4l3.5,16.6c1.1,5,2.7,10.8,7.5,12.7s11.1-2.2,14.9-6.7c10.3-12.7,15.3-29.1,25.2-42,5.6-7.2,17.1-15.6,19-24.9,1.6-7.7-7.8-13.5-15.6-12.9-5.8.4-11.3,5.4-16.4,7.9C1266.5,401.4,1256.9,404.2,1248.8,409.8Z" transform="translate(238.6 409.9)" fill="#e67d36"/><path d="M1295.9,522.9c18.6,14.2,43.1,18.3,62.9,30.9a12.3,12.3,0,0,1,5.8,5.9c1.2,3.6-.6,7.3-2.3,10.5L1349.6,594c-6.9,12.9-15.6,27.2-29.8,30a25.7,25.7,0,0,1-28.9-17.9c-3.7-14,5-29.3.9-43.2s-18.7-21.8-20.1-35.5c-.5-4.3,3.3-24.8,10.3-23.7,3.2.5,2.9,5.3,4.1,7.8A31.6,31.6,0,0,0,1295.9,522.9Z" transform="translate(238.6 409.9)" fill="#e67d36"/><path d="M1254.3,600c10.4,3.8,22.1,4.1,32,9.1,4.3,2.3,9.2,5.4,13.6,3.4a104.2,104.2,0,0,0-2.9-20.8,16,16,0,0,0-1.9-5.3,17.3,17.3,0,0,0-4.2-3.9l-23.7-17.3a33,33,0,0,0-8.3-4.9C1232.8,551.4,1237.2,593.9,1254.3,600Z" transform="translate(238.6 409.9)" fill="#ffd62e"/><path d="M1346.4,588.4c3-10.8,2.4-22.4,6.7-32.7,1.9-4.5,4.7-9.7,2.3-13.9a110.1,110.1,0,0,0-20.5,4.4,16.7,16.7,0,0,0-5.2,2.5,17,17,0,0,0-3.5,4.5l-15.4,24.9a31.8,31.8,0,0,0-4.2,8.7C1299.6,613.6,1341.6,605.9,1346.4,588.4Z" transform="translate(238.6 409.9)" fill="#ffd62e"/><path d="M1329.1,451.1c2,3.2,5.4,5.2,8.8,6.9a177,177,0,0,0,31.8,12.2,7.7,7.7,0,0,0,5.2.1,7.5,7.5,0,0,0,3.1-3.7l4.1-7.7a2.8,2.8,0,0,0-.3-4h0c-4.6-5.6-9.3-11.2-15.5-14.9a50.2,50.2,0,0,1-6.3-3.8c-3.4-2.8-5.7-6.9-8.4-10.5a6,6,0,0,0-8.5-.9,5.2,5.2,0,0,0-1,1.1C1336.1,433.9,1325,443.9,1329.1,451.1Z" transform="translate(238.6 409.9)" fill="#ffd62e"/><path d="M1283,432.6c3.7-1,6.4-3.9,8.9-6.7a186.1,186.1,0,0,0,19.8-27.7,7.6,7.6,0,0,0,1.5-5,9.1,9.1,0,0,0-2.8-3.9l-6.5-5.9a3.7,3.7,0,0,0-2-1.2,4.6,4.6,0,0,0-2,.5c-6.4,3.1-13.1,6.2-18.2,11.2-1.7,1.8-3.5,3.5-5.3,5.1-3.6,2.7-8.1,3.9-12.2,5.6a5.9,5.9,0,0,0-3.1,7.8,5.7,5.7,0,0,0,.8,1.3C1268.3,421.5,1275.1,434.8,1283,432.6Z" transform="translate(238.6 409.9)" fill="#ffd62e"/><path d="M1373.4,649.8c3.7-1,6.4-3.9,8.8-6.8a180.8,180.8,0,0,0,19.9-27.6,7.5,7.5,0,0,0,1.4-5,7,7,0,0,0-2.8-3.9l-6.4-5.9a4,4,0,0,0-2.1-1.2,4.5,4.5,0,0,0-1.9.5c-6.5,3.1-13.1,6.2-18.2,11.2a63.8,63.8,0,0,1-5.3,5.1c-3.5,2.6-8.1,3.8-12.2,5.5a6,6,0,0,0-3.1,7.9,5.7,5.7,0,0,0,.8,1.3C1358.6,638.7,1365.5,651.9,1373.4,649.8Z" transform="translate(238.6 409.9)" fill="#ffd62e"/><path d="M1210.7,463.4a4.7,4.7,0,0,0-.9,2.8,4.3,4.3,0,0,0,1.4,2.3c4.4,4.6,10.5,7.1,16.2,9.7a125.9,125.9,0,0,1,16.4,9.3c3.4,2.2,7.4,4.8,11.3,3.6s5-4.2,6.6-7.1l3.6-6.4a6.3,6.3,0,0,0,1-3,6.2,6.2,0,0,0-.9-2.6,249.8,249.8,0,0,0-22-36.4,12.1,12.1,0,0,0-5-4.5,8.4,8.4,0,0,0-7.9,1.7,24,24,0,0,0-5.3,6.5C1220.2,447.3,1215.3,455.1,1210.7,463.4Z" transform="translate(238.6 409.9)" fill="#ffd62e"/><path d="M1420.9,575.1a3.5,3.5,0,0,0,4.3-2.9c1.9-6,1.1-12.5.7-18.8a119.3,119.3,0,0,1,.3-18.9c.3-4.1.6-8.8-2.4-11.6s-6-2.4-9.3-2.4h-7.3a5.5,5.5,0,0,0-3.1.5,5.8,5.8,0,0,0-1.9,1.9,252.2,252.2,0,0,0-21.4,37,12,12,0,0,0-1.6,6.4,8.1,8.1,0,0,0,5.2,6.2,24,24,0,0,0,8.4,1.5C1402.1,574.5,1411.5,575.1,1420.9,575.1Z" transform="translate(238.6 409.9)" fill="#ffd62e"/><path d="M1378.7,418a104.7,104.7,0,0,1,12.7,16.1,57.7,57.7,0,0,0,6.5,10.3c2.7,3.1,6.9,5.2,10.9,4.2s6.6-4.8,8.8-8.3l6.3-9.9a9.7,9.7,0,0,0,1.8-4.3,8.6,8.6,0,0,0-.9-3.9c-1.2-3.4-2.5-6.7-3.7-10-2.6-7-6-14.8-13.1-17a20.8,20.8,0,0,0-8.6-.4C1389,396,1365.8,403.8,1378.7,418Z" transform="translate(238.6 409.9)" fill="#ffd62e"/><path d="M1238.6,528.5a98.6,98.6,0,0,1,1.4-20.3,63.4,63.4,0,0,0,1.9-12.1c0-4.2-1.7-8.6-5.4-10.4s-8.1-.9-12.1.3l-11.3,3.3a8.5,8.5,0,0,0-4.2,1.9,8.8,8.8,0,0,0-1.9,3.4l-3.9,10c-2.7,6.9-5.4,15-1.6,21.3a19.7,19.7,0,0,0,6.2,6C1216.3,538,1238.7,547.8,1238.6,528.5Z" transform="translate(238.6 409.9)" fill="#ffd62e"/><path d="M1299.1,516.4a14.3,14.3,0,0,0,7.6,10.7c8.6,4.6,19.2.7,28.9,1.4,7.9.6,16.6,4.2,23.2-.3a22.3,22.3,0,0,0,6.1-8.1c1.3-2.4,2.5-5.1,1.6-7.7a7.8,7.8,0,0,0-2.6-3.4,21.8,21.8,0,0,0-17.3-5.1c-6.1.9-12.3,4.3-18.2,2.5a38.8,38.8,0,0,1-5.8-2.8C1313.2,499.3,1297.7,503.5,1299.1,516.4Z" transform="translate(238.6 409.9)" fill="#ffd62e"/><path d="M1421.4,484.3a2.8,2.8,0,0,0,.1-.9,3.1,3.1,0,0,0-.5-1,8.4,8.4,0,0,0-7.6-2.2c-2.1.4-4.1,1.7-6.3,1.8s-2.9-.7-2.8-2a3.4,3.4,0,0,1,.6-1.2l1.9-3a2.9,2.9,0,0,1-1.1-2.6,10,10,0,0,1,1-2.9c.7.6,1.8,1.3,2.6.7s.4-1.6.2-2.5,0-2.1.9-2.1a28.6,28.6,0,0,1,9.6,7,6.1,6.1,0,0,0-.4-6,4.5,4.5,0,0,1-1-1.4c-.1-.5,0-1.3.6-1.4a1.4,1.4,0,0,1,1.1.2l2.9,1.4a3,3,0,0,1,4-1.5,2.9,2.9,0,0,1,1.6,1.5,2.3,2.3,0,0,1,3.1-.9,2.2,2.2,0,0,1,.7.6,4.6,4.6,0,0,1-.3,4.1l-4.7,11.6a43,43,0,0,0,9.5-.1,14.3,14.3,0,0,1,9.2,2.1,5.5,5.5,0,0,1-4.8,3.7c1.6.4,3.3,1.4,3.3,2.9a2.8,2.8,0,0,1-2.1,2.5,9.7,9.7,0,0,1-3.4,0,9.6,9.6,0,0,1,2,2.5,2.6,2.6,0,0,1-.6,2.9c-1.1.9-2.7.3-4-.4-2.9-1.6-5.7-3.4-8.5-5.2a3.3,3.3,0,0,0-4-.6c-2,.6-11.6,5.6-11.6,1.3,0-1.9,2.9-3,4.2-3.9A11.7,11.7,0,0,0,1421.4,484.3Z" transform="translate(238.6 409.9)" fill="#81c24c"/><path d="M1442.5,514.1a1.6,1.6,0,0,0,1.8.7,8.2,8.2,0,0,0,6.3-4.8c.9-1.9,1-4.3,2.2-6.2s2.4-1.9,3.4-1l.6,1,1.2,3.4a2.9,2.9,0,0,1,2.8.7,8.4,8.4,0,0,1,1.8,2.4c-1,.3-2.1.7-2.1,1.7s1,1.3,1.8,1.6,1.7,1.2,1.2,2a28.3,28.3,0,0,1-11.3,3.6,5.7,5.7,0,0,0,5,3.1h1.8c.5.2,1,.8.8,1.3a2,2,0,0,1-.8.8l-2.9,1.5a3,3,0,0,1-.9,4.1,2.9,2.9,0,0,1-2.2.4,2.3,2.3,0,0,1-1,3.1,2.3,2.3,0,0,1-1.1.3c-1.4-.1-2.4-1.4-3.1-2.6l-6.7-10.7a42.3,42.3,0,0,0-5.5,7.8,14.1,14.1,0,0,1-7,6.2,5.3,5.3,0,0,1-.3-6c-1.3.9-3,1.8-4.3.9a2.7,2.7,0,0,1-.8-3,6.7,6.7,0,0,1,1.9-2.8,7,7,0,0,1-3.2.2,2.7,2.7,0,0,1-2.1-2.2c0-1.4,1.4-2.4,2.7-2.9a81.8,81.8,0,0,1,9.2-3.9,4.9,4.9,0,0,0,2-1.1,4.6,4.6,0,0,0,.8-1.9c.6-1.9,2.3-12.6,5.8-10.2,1.5,1.1.7,4.1.7,5.9A10.8,10.8,0,0,0,1442.5,514.1Z" transform="translate(238.6 409.9)" fill="#81c24c"/><path d="M1278.6,495.2c0,.3.2.5.5.7a1.4,1.4,0,0,0,1.1.3,8.7,8.7,0,0,0,7-3.9c1.2-1.9,1.6-4.2,2.9-5.8s2.6-1.6,3.4-.6a2.2,2.2,0,0,1,.5,1.1l.8,3.5a2.8,2.8,0,0,1,2.7,1,13.8,13.8,0,0,1,1.4,2.7c-1,.1-2.2.5-2.3,1.4s.9,1.5,1.6,1.9,1.5,1.4.9,2.2a28.5,28.5,0,0,1-11.6,2.1,5.8,5.8,0,0,0,4.6,3.8,4.1,4.1,0,0,1,1.6.3,1.1,1.1,0,0,1,.7,1.4,1.5,1.5,0,0,1-.9.6l-3,1.2a3,3,0,0,1-1.3,3.9,2.9,2.9,0,0,1-2.4.1,2.3,2.3,0,0,1-1.5,2.9,1.8,1.8,0,0,1-1,.2c-1.4-.3-2.1-1.8-2.7-3l-5.2-11.5a47.8,47.8,0,0,0-6.5,7,13.6,13.6,0,0,1-7.8,5.2,5.3,5.3,0,0,1,.6-5.9c-1.4.8-3.2,1.4-4.4.3a2.7,2.7,0,0,1-.4-3.2,7.6,7.6,0,0,1,2.2-2.5,11.7,11.7,0,0,1-3.2-.2,2.7,2.7,0,0,1-1.8-2.4c.2-1.4,1.7-2.2,3.1-2.6,3.2-1,6.5-1.9,9.7-2.6a4.5,4.5,0,0,0,2.2-.8,9.9,9.9,0,0,0,1.1-1.7c.9-1.8,3.8-12.2,7-9.3,1.4,1.3.1,4.1,0,5.8A10.1,10.1,0,0,0,1278.6,495.2Z" transform="translate(238.6 409.9)" fill="#81c24c"/><path d="M1358,503.6a1.3,1.3,0,0,0-.7.6,2,2,0,0,0-.1,1.1,8.2,8.2,0,0,0,4.5,6.5c2,1,4.4,1.2,6.2,2.4s1.9,2.4.9,3.4l-1.1.5-3.4,1.2a2.7,2.7,0,0,1-.7,2.7,7.4,7.4,0,0,1-2.5,1.7c-.2-.9-.6-2-1.6-2s-1.3,1-1.7,1.8-1.3,1.6-2,1.1a28.5,28.5,0,0,1-3.4-11.4,5.9,5.9,0,0,0-3.2,4.9,5,5,0,0,1-.2,1.7,1.1,1.1,0,0,1-1.3.8,1.8,1.8,0,0,1-.7-.8l-1.5-2.9a2.8,2.8,0,0,1-4-.9,2.9,2.9,0,0,1-.4-2.4,2.3,2.3,0,0,1-3.1-1.1,3.6,3.6,0,0,1-.2-1c.1-1.4,1.5-2.3,2.7-3.1l10.9-6.3a46.4,46.4,0,0,0-7.7-5.7,13.9,13.9,0,0,1-6-7.3,5.4,5.4,0,0,1,6,0c-.9-1.2-1.7-3-.8-4.3a2.7,2.7,0,0,1,3.1-.7,8.7,8.7,0,0,1,2.8,1.9,7,7,0,0,1-.2-3.2,2.7,2.7,0,0,1,2.2-1.9c1.4,0,2.4,1.5,3,2.7,1.3,3.1,2.5,6.2,3.6,9.4a4.4,4.4,0,0,0,1,1.9,4,4,0,0,0,1.8,1c1.9.6,12.5,2.6,9.9,5.9-1.2,1.6-4.1.6-5.8.6A11.3,11.3,0,0,0,1358,503.6Z" transform="translate(238.6 409.9)" fill="#81c24c"/><path d="M1234.1,426.5a1.6,1.6,0,0,0,1.6,1,8.2,8.2,0,0,0,7-3.9c1.2-1.9,1.6-4.2,3-5.9s2.6-1.6,3.4-.6a6.1,6.1,0,0,1,.5,1.2l.8,3.4a2.9,2.9,0,0,1,2.6,1.1,8.7,8.7,0,0,1,1.4,2.7c-.9.1-2.1.4-2.2,1.4s.9,1.4,1.6,1.9,1.5,1.4.9,2.1a26.9,26.9,0,0,1-11.6,2.1,5.8,5.8,0,0,0,4.6,3.8,5.3,5.3,0,0,1,1.7.4,1.1,1.1,0,0,1,.6,1.4,2.8,2.8,0,0,1-.9.6l-3.1,1.2a2.9,2.9,0,0,1-1.3,3.9,3.3,3.3,0,0,1-2.4.1,2.3,2.3,0,0,1-1.5,2.9h-1c-1.4-.2-2.1-1.7-2.7-3L1232,433a39.4,39.4,0,0,0-6.5,7,14.3,14.3,0,0,1-7.8,5.2,5.5,5.5,0,0,1,.6-6c-1.4.8-3.3,1.4-4.4.4a2.7,2.7,0,0,1-.4-3.2,7.1,7.1,0,0,1,2.3-2.6,6.9,6.9,0,0,1-3.2-.2,2.4,2.4,0,0,1-1.8-2.4c.1-1.3,1.7-2.1,3-2.5a69.7,69.7,0,0,1,9.7-2.6,5.8,5.8,0,0,0,2.2-.8,5.4,5.4,0,0,0,1.1-1.8c.9-1.8,3.9-12.1,7-9.3,1.4,1.3.1,4.2,0,5.9A11.6,11.6,0,0,0,1234.1,426.5Z" transform="translate(238.6 409.9)" fill="#81c24c"/><path d="M1214.2,558.3a1.4,1.4,0,0,0-.5,1.8,8.4,8.4,0,0,0,5.6,5.7c2.1.6,4.4.4,6.4,1.3s2.3,2.1,1.5,3.2l-1,.7-3.1,1.7a3,3,0,0,1-.3,2.9,7,7,0,0,1-2.2,2c-.3-.8-1-1.9-1.9-1.8s-1.2,1.2-1.4,2-1,1.8-1.8,1.4a28.3,28.3,0,0,1-5.3-10.7,6,6,0,0,0-2.4,5.4,4.7,4.7,0,0,1,.2,1.7c-.2.6-.6,1.2-1.2,1a1.6,1.6,0,0,1-.9-.7l-1.9-2.7a2.9,2.9,0,0,1-4.1-.2,3.2,3.2,0,0,1-.8-2.3,2.2,2.2,0,0,1-3.2-.5,2.1,2.1,0,0,1-.4-1c0-1.4,1-2.5,2.1-3.5l9.8-7.9a38.1,38.1,0,0,0-8.5-4.4,13.7,13.7,0,0,1-7.1-6.1,5.5,5.5,0,0,1,5.9-1.1c-1.2-1.1-2.3-2.7-1.6-4.1a2.8,2.8,0,0,1,3-1.2,7.1,7.1,0,0,1,3,1.5,8.7,8.7,0,0,1-.6-3.2,2.5,2.5,0,0,1,1.7-2.3c1.4-.2,2.6,1.1,3.4,2.3a92.6,92.6,0,0,1,5.1,8.6,4,4,0,0,0,1.3,1.8,3.6,3.6,0,0,0,2,.6c1.9.4,12.7.5,10.8,4.2-.9,1.7-4,1.3-5.7,1.5A10.9,10.9,0,0,0,1214.2,558.3Z" transform="translate(238.6 409.9)" fill="#81c24c"/><path d="M1341.8,388.3a1.1,1.1,0,0,0,0-.8,1.3,1.3,0,0,0-.7-.9,8.1,8.1,0,0,0-7.8-1.7c-2.1.6-3.8,2-6.1,2.4s-3-.6-2.9-1.8a5.6,5.6,0,0,1,.4-1.2l1.6-3.1a3,3,0,0,1-1.3-2.6,8.9,8.9,0,0,1,.7-2.8c.8.5,2,1,2.6.4s.4-1.7.1-2.5-.1-2.1.7-2.2a27.5,27.5,0,0,1,10.2,6.2,6,6,0,0,0-.9-5.9,5,5,0,0,1-1-1.4,1,1,0,0,1,.5-1.4,1.2,1.2,0,0,1,1,.1l3.1,1.2a3,3,0,0,1,3.8-1.9,2.5,2.5,0,0,1,1.6,1.4,2.4,2.4,0,0,1,3.2-1.2l.7.5a4.9,4.9,0,0,1,0,4.1l-3.6,11.9a37.8,37.8,0,0,0,9.5-.9,13.6,13.6,0,0,1,9.3,1.3,5.2,5.2,0,0,1-4.4,4.1c1.6.3,3.4,1.1,3.6,2.7a3,3,0,0,1-1.8,2.6,7.8,7.8,0,0,1-3.4.4,6.6,6.6,0,0,1,2.2,2.2,2.4,2.4,0,0,1-.2,2.9c-1,1-2.7.6-4,0a75.6,75.6,0,0,1-9-4.5,9,9,0,0,0-2.1-.8,4.7,4.7,0,0,0-2,.6c-1.8.7-11,6.5-11.3,2.3-.2-2,2.6-3.2,3.8-4.3A11.1,11.1,0,0,0,1341.8,388.3Z" transform="translate(238.6 409.9)" fill="#81c24c"/><path d="M1344.2,611.6a1.1,1.1,0,0,0,.8-.2,1.3,1.3,0,0,0,.7-.8,8.3,8.3,0,0,0-.9-7.9c-1.2-1.8-3.2-3.1-4.1-5.1s-.6-3,.7-3.4a2.4,2.4,0,0,1,1.2,0l3.5.6a3.3,3.3,0,0,1,1.9-2.1,10.1,10.1,0,0,1,3-.2c-.2.9-.4,2.1.4,2.6s1.7-.2,2.4-.8,2-.8,2.4,0a28.1,28.1,0,0,1-2.6,11.7,5.8,5.8,0,0,0,5.3-2.7,4.6,4.6,0,0,1,.9-1.5,1.1,1.1,0,0,1,1.5,0,1.4,1.4,0,0,1,.2,1.1v3.2a3,3,0,0,1,3.1,2.7,2.7,2.7,0,0,1-.8,2.3,2.4,2.4,0,0,1,2.2,2.5,3.8,3.8,0,0,1-.3,1,4.7,4.7,0,0,1-3.9,1.4l-12.4.2a39.9,39.9,0,0,0,3.9,8.7,14,14,0,0,1,1.7,9.2,5.5,5.5,0,0,1-5.3-2.9c.2,1.6,0,3.5-1.4,4.2a2.5,2.5,0,0,1-3-.9,8.5,8.5,0,0,1-1.5-3,7.4,7.4,0,0,1-1.4,2.8,2.3,2.3,0,0,1-2.8.8c-1.3-.7-1.4-2.4-1.2-3.9a83.9,83.9,0,0,1,1.3-9.9,3.5,3.5,0,0,0-1.1-3.9c-1.3-1.4-9.7-8.3-5.8-10,1.8-.8,3.8,1.4,5.4,2.3A11,11,0,0,0,1344.2,611.6Z" transform="translate(238.6 409.9)" fill="#81c24c"/></g><g clip-path="url(#fe813451-e991-4830-9c92-565131c020ba)"><g clip-path="url(#fe813451-e991-4830-9c92-565131c020ba)"><g clip-path="url(#fe813451-e991-4830-9c92-565131c020ba)"><g clip-path="url(#a01d4557-f4a2-4259-b17a-a1bbd29f9b76)"><path d="M616.6,132.2c284.6-54.6,93.6-307.6-87.9-294.6s17.6-223.6-141.5-247C299.6-422.2,76.6-189-128.6-37.4c-223.5,165.3-60.8,397.1,86,495.8,90.5,61,387.6,109.5,402.2-104.2,0,0-27.5-167.5,257-222" transform="translate(238.6 409.9)" fill="#ffe9ab"/></g></g></g></g><g clip-path="url(#f02be263-6310-4fd4-ab5f-8515f9bbea76)"><circle cx="1578" cy="1164.3" r="176.9" fill="#f5f8e3"/><circle cx="1578" cy="1164.3" r="176.9" fill="#d6d6bd"/><circle cx="1578" cy="1164.3" r="171.7" fill="#f5f8e3"/><path d="M1491.1,754.4c0,9.7-12.6,18.1-14.4,27.3s6.4,22,2.8,30.7-18.5,11.8-23.7,19.7-2.4,22.8-9.2,29.5-21.5,3.8-29.5,9.2-10.8,20.1-19.7,23.7-21.2-4.7-30.7-2.8-17.5,14.4-27.3,14.4-18.2-12.6-27.3-14.4-22,6.4-30.8,2.8-11.8-18.5-19.7-23.7-22.7-2.4-29.5-9.2-3.8-21.5-9.1-29.5-20.1-10.8-23.8-19.7,4.8-21.2,2.9-30.7-14.4-17.5-14.4-27.3,12.6-18.2,14.4-27.3-6.5-22-2.9-30.8,18.5-11.8,23.8-19.7,2.4-22.7,9.1-29.5,21.6-3.8,29.5-9.1,10.8-20.1,19.7-23.8,21.2,4.8,30.8,2.9,17.6-14.4,27.3-14.4,18.1,12.6,27.3,14.4,22-6.5,30.7-2.9,11.8,18.5,19.7,23.8,22.8,2.4,29.5,9.1,3.8,21.6,9.2,29.5,20.1,10.8,23.7,19.7-4.7,21.3-2.8,30.8S1491.1,744.7,1491.1,754.4Z" transform="translate(238.6 409.9)" fill="#e18e24"/><circle cx="1578" cy="1164.3" r="116" fill="#d15d0d"/><path d="M1253.6,676.4l1.2-1.3Z" transform="translate(238.6 409.9)" fill="#f4bf19"/><path d="M1256.1,673.7l1.3-1.3Z" transform="translate(238.6 409.9)" fill="#f4bf19"/><path d="M1251.2,679.1l1-1.2A12.7,12.7,0,0,0,1251.2,679.1Z" transform="translate(238.6 409.9)" fill="#f4bf19"/><path d="M1248.8,682l1-1.2Z" transform="translate(238.6 409.9)" fill="#f4bf19"/><path d="M1258.7,671.1l1.4-1.3Z" transform="translate(238.6 409.9)" fill="#f4bf19"/><polygon points="1506.9 1072.6 1505.5 1073.7 1506.9 1072.7 1506.9 1072.6" fill="#f4bf19"/><path d="M1264.1,666.2l1.7-1.4Z" transform="translate(238.6 409.9)" fill="#f4bf19"/><path d="M1261.4,668.6l1.5-1.4Z" transform="translate(238.6 409.9)" fill="#f4bf19"/><path d="M1421.4,672.4l1.2,1.3Z" transform="translate(238.6 409.9)" fill="#f4bf19"/><path d="M1424,675.1l1.1,1.3Z" transform="translate(238.6 409.9)" fill="#f4bf19"/><path d="M1426.5,677.9l1.1,1.2Z" transform="translate(238.6 409.9)" fill="#f4bf19"/><path d="M1429,680.8l.9,1.2Z" transform="translate(238.6 409.9)" fill="#f4bf19"/><path d="M1410.4,662.7l1.4,1.1Z" transform="translate(238.6 409.9)" fill="#f4bf19"/><path d="M1415.8,667.2l1.6,1.4Z" transform="translate(238.6 409.9)" fill="#f4bf19"/><path d="M1413,664.8l1.7,1.4Z" transform="translate(238.6 409.9)" fill="#f4bf19"/><path d="M1418.7,669.8l1.4,1.3Z" transform="translate(238.6 409.9)" fill="#f4bf19"/><path d="M1431.5,784.6v21.1h11.9a114.1,114.1,0,0,0,7.9-21.1Z" transform="translate(238.6 409.9)" fill="#e18e24"/><path d="M1235.4,805.7h11.8V784.6h-19.9A114.8,114.8,0,0,0,1235.4,805.7Z" transform="translate(238.6 409.9)" fill="#e18e24"/><polyline points="1526.6 1194.5 1506.9 1194.5 1506.9 1215.6 1526.6 1215.6 1547.7 1215.6 1567.4 1215.6 1567.4 1194.5 1547.7 1194.5 1526.6 1194.5" fill="#e18e24"/><polyline points="1608.2 1194.5 1588.5 1194.5 1588.5 1215.6 1608.2 1215.6 1629.3 1215.6 1649 1215.6 1649 1194.5 1629.3 1194.5 1608.2 1194.5" fill="#e18e24"/><path d="M1247.2,743.8h-23.3c-.3,3.5-.5,7-.5,10.6s.2,7.1.5,10.5H1288V743.8Z" transform="translate(238.6 409.9)" fill="#e18e24"/><polyline points="1567.4 1153.7 1547.7 1153.7 1547.7 1174.8 1567.4 1174.8 1588.5 1174.8 1608.2 1174.8 1608.2 1153.7 1588.5 1153.7 1567.4 1153.7" fill="#e18e24"/><path d="M1454.9,743.8h-64.2v21.1h64.1c.3-3.4.5-7,.5-10.5S1455.2,747.3,1454.9,743.8Z" transform="translate(238.6 409.9)" fill="#e18e24"/><polygon points="1486.4 1093.2 1485.8 1093.9 1485.8 1153.7 1506.9 1153.7 1506.9 1093.2 1486.4 1093.2" fill="#f4bf19"/><polygon points="1485.8 1194.5 1485.8 1234.7 1486.4 1235.3 1506.9 1235.3 1506.9 1174.8 1485.8 1174.8 1485.8 1194.5" fill="#f4bf19"/><polyline points="1567.4 1194.5 1567.4 1215.6 1567.4 1235.3 1588.5 1235.3 1588.5 1215.6 1588.5 1194.5 1588.5 1174.8 1567.4 1174.8 1567.4 1194.5" fill="#f4bf19"/><polyline points="1567.4 1112.9 1567.4 1134 1567.4 1153.7 1588.5 1153.7 1588.5 1134 1588.5 1112.9 1588.5 1093.2 1567.4 1093.2 1567.4 1112.9" fill="#f4bf19"/><path d="M1339.4,638.4c-3.6,0-7.1.2-10.6.5v23.3h21.1V638.9C1346.5,638.6,1342.9,638.4,1339.4,638.4Z" transform="translate(238.6 409.9)" fill="#f4bf19"/><polygon points="1669.6 1093.2 1649 1093.2 1649 1153.7 1670.1 1153.7 1670.1 1093.9 1669.6 1093.2" fill="#f4bf19"/><polygon points="1649 1194.5 1649 1235.3 1669.6 1235.3 1670.1 1234.7 1670.1 1174.8 1649 1174.8 1649 1194.5" fill="#f4bf19"/><path d="M1227.3,724.1h19.8V703h-11.7A114.8,114.8,0,0,0,1227.3,724.1Z" transform="translate(238.6 409.9)" fill="#e18e24"/><polyline points="1526.6 1112.9 1506.9 1112.9 1506.9 1134 1526.6 1134 1547.7 1134 1567.4 1134 1567.4 1112.9 1547.7 1112.9 1526.6 1112.9" fill="#e18e24"/><polyline points="1608.2 1112.9 1588.5 1112.9 1588.5 1134 1608.2 1134 1629.3 1134 1649 1134 1649 1112.9 1629.3 1112.9 1608.2 1112.9" fill="#e18e24"/><path d="M1443.4,703h-11.9v21.1h19.8A114.1,114.1,0,0,0,1443.4,703Z" transform="translate(238.6 409.9)" fill="#e18e24"/><path d="M1262.9,667.2l1.2-1Z" transform="translate(238.6 409.9)" fill="#eaac0f"/><path d="M1247.7,683.3l1.1-1.3Z" transform="translate(238.6 409.9)" fill="#eaac0f"/><path d="M1265.8,664.8l1.2-1Z" transform="translate(238.6 409.9)" fill="#eaac0f"/><path d="M1249.8,680.8l1.4-1.7Z" transform="translate(238.6 409.9)" fill="#eaac0f"/><path d="M1252.2,677.9l1.4-1.5Z" transform="translate(238.6 409.9)" fill="#eaac0f"/><path d="M1260.1,669.8l1.3-1.2Z" transform="translate(238.6 409.9)" fill="#eaac0f"/><path d="M1257.4,672.4l1.3-1.3Z" transform="translate(238.6 409.9)" fill="#eaac0f"/><path d="M1254.8,675.1l1.3-1.4Z" transform="translate(238.6 409.9)" fill="#eaac0f"/><path d="M1288,650.4V703h21.1V642.3A114.8,114.8,0,0,0,1288,650.4Z" transform="translate(238.6 409.9)" fill="#f4bf19"/><path d="M1288,825.4v33a114.1,114.1,0,0,0,21.1,7.9V805.7H1288Z" transform="translate(238.6 409.9)" fill="#f4bf19"/><polyline points="1526.6 1153.7 1526.6 1174.8 1526.6 1194.5 1547.7 1194.5 1547.7 1174.8 1547.7 1153.7 1547.7 1134 1526.6 1134 1526.6 1153.7" fill="#f4bf19"/><polyline points="1608.2 1153.7 1608.2 1174.8 1608.2 1194.5 1629.3 1194.5 1629.3 1174.8 1629.3 1153.7 1629.3 1134 1608.2 1134 1608.2 1153.7" fill="#f4bf19"/><path d="M1369.6,642.3V703h21.1V650.4A114.8,114.8,0,0,0,1369.6,642.3Z" transform="translate(238.6 409.9)" fill="#f4bf19"/><path d="M1369.6,825.4v40.9a114.1,114.1,0,0,0,21.1-7.9V805.7h-21.1Z" transform="translate(238.6 409.9)" fill="#f4bf19"/><path d="M1417.4,668.6l1.3,1.2Z" transform="translate(238.6 409.9)" fill="#eaac0f"/><path d="M1414.7,666.2l1.1,1Z" transform="translate(238.6 409.9)" fill="#eaac0f"/><path d="M1427.6,679.1l1.4,1.7Z" transform="translate(238.6 409.9)" fill="#eaac0f"/><path d="M1411.8,663.8l1.2,1Z" transform="translate(238.6 409.9)" fill="#eaac0f"/><path d="M1425.1,676.4l1.4,1.5Z" transform="translate(238.6 409.9)" fill="#eaac0f"/><polygon points="1669.6 1093.2 1668.5 1091.9 1669.5 1093.2 1669.6 1093.2" fill="#eaac0f"/><path d="M1420.1,671.1a8,8,0,0,0,1.3,1.3A8,8,0,0,1,1420.1,671.1Z" transform="translate(238.6 409.9)" fill="#eaac0f"/><polygon points="1649 1072.7 1648.4 1072.1 1649 1072.8 1649 1072.7" fill="#eaac0f"/><path d="M1422.6,673.7l1.4,1.4Z" transform="translate(238.6 409.9)" fill="#eaac0f"/><path d="M1268.3,662.8l-1.3,1-1.2,1-1.7,1.4-1.2,1-1.5,1.4-1.3,1.2-1.4,1.3-1.3,1.3-1.3,1.3-1.3,1.4-1.2,1.3-1.4,1.5-1,1.2-1.4,1.7-1,1.2-1,1.3H1288V662.2h-19Z" transform="translate(238.6 409.9)" fill="#e18e24"/><polyline points="1567.4 1072.1 1547.7 1072.1 1547.7 1093.2 1567.4 1093.2 1588.5 1093.2 1608.2 1093.2 1608.2 1072.1 1588.5 1072.1 1567.4 1072.1" fill="#e18e24"/><path d="M1430.9,683.2l-1-1.2-.9-1.2-1.4-1.7-1.1-1.2-1.4-1.5-1.1-1.3-1.4-1.4-1.2-1.3a8,8,0,0,1-1.3-1.3l-1.4-1.3-1.3-1.2-1.6-1.4-1.1-1-1.7-1.4-1.2-1-1.4-1-.6-.7h-19.1v21.1h40.2Z" transform="translate(238.6 409.9)" fill="#e18e24"/></g></svg>